<svg width="36" height="41" viewBox="0 0 36 41" fill="none" xmlns="http://www.w3.org/2000/svg">
<path d="M15.0145 1.22585L1.22723 15.0131C0.641354 15.5986 0.24231 16.3448 0.0805847 17.1571C-0.0811404 17.9695 0.00172078 18.8115 0.318685 19.5768L0.461038 19.8803C0.812126 20.5665 1.34581 21.1425 2.0033 21.5447C2.66079 21.947 3.41656 22.1599 4.18733 22.1601H9.60092V36.814C9.60092 37.9245 10.042 38.9894 10.8272 39.7746C11.6124 40.5598 12.6773 41.0009 13.7878 41.0009H22.1615L22.4755 40.9904C23.5288 40.9112 24.5132 40.4368 25.2315 39.6622C25.9497 38.8877 26.3486 37.8703 26.3483 36.814L26.3462 22.1601H31.7619C32.5898 22.1599 33.3991 21.9143 34.0875 21.4542C34.7759 20.9941 35.3124 20.3403 35.6292 19.5754C35.946 18.8104 36.0289 17.9687 35.8674 17.1567C35.706 16.3446 35.3073 15.5987 34.722 15.0131L20.9347 1.22585C20.1496 0.440939 19.0848 0 17.9746 0C16.8644 0 15.7997 0.440939 15.0145 1.22585Z" fill="#A067E7"/>
</svg>
