<svg width="135" height="103" viewBox="0 0 135 103" fill="none" xmlns="http://www.w3.org/2000/svg">
<g filter="url(#filter0_f_67_1443)">
<path d="M20.0976 20.0976H114.697V82.9024H20.0976V20.0976ZM67.3975 35.7988C71.5791 35.7988 75.5894 37.453 78.5462 40.3976C81.503 43.3421 83.1641 47.3358 83.1641 51.5C83.1641 55.6642 81.503 59.6579 78.5462 62.6024C75.5894 65.547 71.5791 67.2012 67.3975 67.2012C63.2159 67.2012 59.2056 65.547 56.2488 62.6024C53.292 59.6579 51.6308 55.6642 51.6308 51.5C51.6308 47.3358 53.292 43.3421 56.2488 40.3976C59.2056 37.453 63.2159 35.7988 67.3975 35.7988ZM41.1197 30.565C41.1197 33.3412 40.0123 36.0036 38.0411 37.9667C36.0699 39.9297 33.3964 41.0325 30.6087 41.0325V61.9675C33.3964 61.9675 36.0699 63.0703 38.0411 65.0333C40.0123 66.9964 41.1197 69.6588 41.1197 72.435H93.6752C93.6752 69.6588 94.7826 66.9964 96.7539 65.0333C98.7251 63.0703 101.399 61.9675 104.186 61.9675V41.0325C101.399 41.0325 98.7251 39.9297 96.7539 37.9667C94.7826 36.0036 93.6752 33.3412 93.6752 30.565H41.1197Z" fill="#50149A"/>
</g>
<path d="M25.9855 25.2005H120.585V88.0053H25.9855V25.2005ZM73.2854 40.9017C77.467 40.9017 81.4773 42.5559 84.4341 45.5005C87.391 48.445 89.0521 52.4387 89.0521 56.6029C89.0521 60.7671 87.391 64.7608 84.4341 67.7053C81.4773 70.6499 77.467 72.3041 73.2854 72.3041C69.1039 72.3041 65.0936 70.6499 62.1367 67.7053C59.1799 64.7608 57.5188 60.7671 57.5188 56.6029C57.5188 52.4387 59.1799 48.445 62.1367 45.5005C65.0936 42.5559 69.1039 40.9017 73.2854 40.9017ZM47.0077 35.6679C47.0077 38.4441 45.9003 41.1065 43.9291 43.0696C41.9579 45.0326 39.2843 46.1354 36.4966 46.1354V67.0704C39.2843 67.0704 41.9579 68.1732 43.9291 70.1362C45.9003 72.0993 47.0077 74.7617 47.0077 77.5379H99.5632C99.5632 74.7617 100.671 72.0993 102.642 70.1362C104.613 68.1732 107.287 67.0704 110.074 67.0704V46.1354C107.287 46.1354 104.613 45.0326 102.642 43.0696C100.671 41.1065 99.5632 38.4441 99.5632 35.6679H47.0077Z" fill="#9345F3"/>
<defs>
<filter id="filter0_f_67_1443" x="0" y="0" width="134.795" height="103" filterUnits="userSpaceOnUse" color-interpolation-filters="sRGB">
<feFlood flood-opacity="0" result="BackgroundImageFix"/>
<feBlend mode="normal" in="SourceGraphic" in2="BackgroundImageFix" result="shape"/>
<feGaussianBlur stdDeviation="10" result="effect1_foregroundBlur_67_1443"/>
</filter>
</defs>
</svg>
