<svg width="88" height="100" viewBox="0 0 88 100" fill="none" xmlns="http://www.w3.org/2000/svg">
<path fill-rule="evenodd" clip-rule="evenodd" d="M43.8368 21.9364C59.3062 21.9364 71.8523 34.5084 71.8523 50.0103C71.8523 65.5122 59.3062 78.0809 43.8368 78.0809C28.364 78.0809 15.818 65.5122 15.818 50.0103C15.818 34.5084 28.364 21.9364 43.8368 21.9364Z" fill="#BFAFD5"/>
<path d="M42.145 9.3639C42.145 8.42399 42.8969 7.66883 43.8368 7.66883C44.7734 7.66883 45.5254 8.42399 45.5254 9.3639V21.9359C45.5254 22.8725 44.7734 23.631 43.8368 23.631C42.8969 23.631 42.145 22.8725 42.145 21.9359V9.3639ZM42.145 78.0804C42.145 77.1438 42.8969 76.3886 43.8368 76.3886C44.7734 76.3886 45.5254 77.1438 45.5254 78.0804V90.6524C45.5254 91.5923 44.7734 92.3475 43.8368 92.3475C42.8969 92.3475 42.145 91.5923 42.145 90.6524V78.0804Z" fill="#554C9F"/>
<path d="M78.114 28.2096C78.9145 27.7267 79.9646 28.0022 80.4216 28.8254C80.9013 29.6292 80.6258 30.6825 79.8058 31.1395L68.9483 37.4141C68.151 37.8711 67.0977 37.6183 66.6407 36.7951C66.161 35.9946 66.4365 34.9412 67.2597 34.481L78.114 28.2096ZM18.7219 62.5776C19.5192 62.1206 20.5726 62.3734 21.0296 63.1966C21.4865 63.9972 21.2337 65.0505 20.4105 65.5107L9.55628 71.7854C8.75899 72.265 7.70565 71.9896 7.24866 71.1663C6.79167 70.3658 7.04448 69.3125 7.8677 68.8522L18.7219 62.5776Z" fill="#554C9F"/>
<path d="M79.8058 68.8539C80.6031 69.3141 80.9012 70.3675 80.4216 71.168C79.9646 71.9685 78.9145 72.2667 78.1139 71.787L67.2597 65.5124C66.4592 65.0295 66.161 63.9988 66.6407 63.1983C67.0976 62.3977 68.151 62.1223 68.9483 62.5792L79.8058 68.8539ZM20.4105 34.5086C21.211 34.9883 21.4865 36.0189 21.0295 36.8195C20.5498 37.62 19.5192 37.8955 18.7219 37.4385L7.86765 31.1638C7.06711 30.7069 6.79163 29.6535 7.24861 28.8497C7.72829 28.0492 8.75894 27.751 9.55623 28.2339L20.4105 34.5086Z" fill="#554C9F"/>
<path fill-rule="evenodd" clip-rule="evenodd" d="M61.0434 43.8504V36.3409H38.5798V43.8504C38.5798 46.4853 43.6066 48.592 49.823 48.592C56.0393 48.592 61.0434 46.4853 61.0434 43.8504Z" fill="#FAA21B"/>
<path fill-rule="evenodd" clip-rule="evenodd" d="M38.5571 51.3607C38.5571 53.9957 43.584 56.1024 49.8003 56.1024C56.0166 56.1024 61.0434 53.973 61.0434 51.3607V43.8512C61.0434 46.4862 56.0166 48.5929 49.8003 48.5929C43.584 48.5929 38.5571 46.4635 38.5571 43.8512V51.3607Z" fill="#E47B25"/>
<path fill-rule="evenodd" clip-rule="evenodd" d="M61.0434 58.8724C61.0434 61.5041 56.0166 63.6108 49.8003 63.6108C43.584 63.6108 38.5571 61.4814 38.5571 58.8724V51.3597C38.5571 53.9946 43.584 56.1013 49.8003 56.1013C56.0166 56.1013 61.0434 53.9719 61.0434 51.3597V58.8724Z" fill="#FAA21B"/>
<path fill-rule="evenodd" clip-rule="evenodd" d="M49.8003 31.5968C56.0166 31.5968 61.0434 33.7261 61.0434 36.3384C61.0434 38.9474 56.0166 41.0768 49.8003 41.0768C43.584 41.0768 38.5571 38.9474 38.5571 36.3384C38.5571 33.7261 43.6066 31.5968 49.8003 31.5968Z" fill="#FFCD05"/>
<path fill-rule="evenodd" clip-rule="evenodd" d="M53.9812 34.5763C55.1934 34.5763 56.1527 35.124 56.1527 35.7657C56.1527 36.4301 55.1707 36.9811 53.9812 36.9811C52.7918 36.9811 51.8097 36.4301 51.8097 35.7657C51.8097 35.1013 52.7691 34.5763 53.9812 34.5763Z" fill="#FEEB90"/>
<path fill-rule="evenodd" clip-rule="evenodd" d="M37.6431 44.9253C44.4526 44.9253 49.9591 50.4674 49.9591 57.2671C49.9591 64.0928 44.4299 69.609 37.6431 69.609C30.8337 69.609 25.3239 64.0701 25.3239 57.2671C25.3239 50.4674 30.8564 44.9253 37.6431 44.9253Z" fill="#FFCD05"/>
<path fill-rule="evenodd" clip-rule="evenodd" d="M37.6431 48.7949C42.3264 48.7949 46.1217 52.5966 46.1217 57.267C46.1217 61.9632 42.3264 65.7617 37.6431 65.7617C32.9566 65.7617 29.1872 61.9632 29.1872 57.267C29.1872 52.5966 32.9792 48.7949 37.6431 48.7949Z" fill="#FAA21B"/>
<path fill-rule="evenodd" clip-rule="evenodd" d="M45.548 53.5136C46.8736 53.5136 47.9496 54.5896 47.9496 55.9152C47.9496 57.244 46.8736 58.32 45.548 58.32C44.2224 58.32 43.1496 57.244 43.1496 55.9152C43.1496 54.5896 44.2224 53.5136 45.548 53.5136Z" fill="#FEEB90"/>
<path fill-rule="evenodd" clip-rule="evenodd" d="M35.4717 38.0569C32.639 38.0569 31.6537 36.9096 31.6537 31.6202C31.6537 36.498 31.1514 38.0569 27.8617 38.0569C31.1514 38.0569 31.6537 39.7488 31.6537 43.4371C31.6537 40.1636 32.182 38.0569 35.4717 38.0569Z" fill="#FEEB90"/>
<mask id="mask0_557_387" style="mask-type:luminance" maskUnits="userSpaceOnUse" x="38" y="-1" width="11" height="102">
<path d="M38.6316 -0.0958604H48.5881V100.068H38.6316V-0.0958604Z" fill="white"/>
</mask>
<g mask="url(#mask0_557_387)">
<path fill-rule="evenodd" clip-rule="evenodd" d="M43.8368 0C46.4167 0 48.4975 2.08399 48.4975 4.67358C48.4975 7.25993 46.394 9.34392 43.8368 9.34392C41.2537 9.34392 39.173 7.25993 39.173 4.67358C39.173 2.10668 41.2537 0 43.8368 0ZM43.8368 90.6551C46.4167 90.6551 48.4975 92.7391 48.4975 95.3287C48.4975 97.9151 46.394 99.999 43.8368 99.999C41.2537 99.999 39.173 97.8924 39.173 95.3287C39.173 92.7391 41.2537 90.6551 43.8368 90.6551Z" fill="#6D51A1"/>
</g>
<mask id="mask1_557_387" style="mask-type:luminance" maskUnits="userSpaceOnUse" x="-1" y="22" width="90" height="56">
<path d="M-0.364566 22.0772H88.3297V77.6675H-0.364566V22.0772Z" fill="white"/>
</mask>
<g mask="url(#mask1_557_387)">
<path fill-rule="evenodd" clip-rule="evenodd" d="M87.0496 25.0062C88.3298 27.249 87.5747 30.1108 85.3351 31.3943C83.0955 32.6745 80.2402 31.9193 78.96 29.6765C77.6798 27.4305 78.4349 24.5686 80.6745 23.2884C82.9141 22.005 85.7694 22.7601 87.0496 25.0062ZM8.71045 70.3192C9.99066 72.5652 9.23874 75.427 6.99918 76.7105C4.75962 77.9907 1.90103 77.2355 0.620816 74.9927C-0.656153 72.7467 0.0957681 69.8849 2.33533 68.6046C4.57488 67.3212 7.41079 68.0764 8.71045 70.3192Z" fill="#6D51A1"/>
<path fill-rule="evenodd" clip-rule="evenodd" d="M87.0496 75.0154C85.7694 77.2582 82.9141 78.0134 80.6745 76.7332C78.4349 75.4497 77.6798 72.5879 78.96 70.3418C80.2402 68.099 83.0955 67.3439 85.3351 68.6273C87.5747 69.9075 88.3298 72.7694 87.0496 75.0154ZM8.71045 29.6765C7.41079 31.9193 4.57488 32.6745 2.33533 31.3943C0.0957681 30.1108 -0.656153 27.249 0.620816 25.0062C1.90103 22.7601 4.75962 22.005 6.99918 23.2884C9.23874 24.5913 9.99066 27.4532 8.71045 29.6765Z" fill="#6D51A1"/>
</g>
</svg>
