<svg width="399" height="344" viewBox="0 0 399 344" fill="none" xmlns="http://www.w3.org/2000/svg">
<g filter="url(#filter0_f_60_4874)">
<path d="M296.581 215.234L297.746 208.601L278.69 177.482C268.301 163.878 243.886 157.453 224.819 144.767C189.396 120.989 160.041 104.302 133.272 106.001L107.466 106.882L106.498 108.498C102.4 124.919 97.339 132.619 102.101 144.451C110.134 164.444 135.492 185.554 163.064 203.923C177.658 213.649 191.865 220.148 206.424 226.821C241.43 242.756 274.428 249.916 288.732 236.342C292.285 233.094 295.601 219.648 296.581 215.234Z" fill="#FFA900"/>
<path d="M140.294 139.711L132.07 178.879C139.785 185.999 149.363 193.16 161.126 200.209L169.5 162.573L140.294 139.711Z" fill="#FFC200"/>
<path d="M212.747 174.001L202.362 223.19C212.984 228.636 223.315 233.4 233.034 236.913L241.906 196.767L212.747 174.001Z" fill="#FFC200"/>
<path d="M293.378 214.445C275.811 222.617 221.041 204.714 171.058 174.262C120.823 143.819 94.4465 112.422 111.935 104.296C129.448 96.0254 184.257 114.017 234.383 144.529C284.414 174.973 310.899 206.301 293.378 214.445Z" fill="#FF9900"/>
<path d="M293.245 212.39C275.368 220.741 220.42 202.968 170.318 172.565C120.253 142.154 94.065 110.654 111.879 102.21C129.676 93.9054 184.718 111.762 234.825 142.155C284.811 172.611 311.057 203.953 293.245 212.39Z" fill="#FFD900"/>
<path d="M261.081 159.962C253.258 154.152 244.623 148.161 234.829 142.153C184.722 111.76 129.68 93.904 111.883 102.209C108.515 103.766 107.11 106.43 106.773 109.539C147.865 127.913 222.713 158.968 261.081 159.962Z" fill="#FFF600"/>
<path d="M270.958 198.913C257.552 205.206 216.035 191.72 178.254 168.777C140.468 145.837 120.68 122.034 134.149 115.835C147.54 109.42 189.104 123.002 226.892 145.947C264.673 168.897 284.35 192.491 270.958 198.913Z" fill="#FFA900"/>
<path d="M131.079 129.939C128.965 126.136 128.139 122.814 128.631 120.061C129.097 117.467 130.691 115.53 133.391 114.284C147.219 107.658 188.485 120.939 227.324 144.524C250.334 158.503 267.785 173.509 273.994 184.682C276.102 188.476 276.924 191.807 276.451 194.576C276 197.189 274.407 199.167 271.724 200.451C258.016 206.898 215.896 193.322 177.817 170.202C154.796 156.223 137.32 141.17 131.079 129.939ZM271.699 186.017C265.833 175.461 248.923 161.013 226.463 147.375C188.968 124.61 147.904 111.157 134.914 117.38C132.897 118.313 131.73 119.647 131.426 121.366C131.091 123.246 131.751 125.683 133.377 128.61C139.275 139.223 156.212 153.71 178.69 167.352C216.061 190.045 257.116 203.51 270.196 197.364C272.188 196.404 273.36 195.034 273.658 193.284C273.984 191.388 273.325 188.943 271.699 186.017Z" fill="#FF9900"/>
<path d="M117.247 126.673L119.759 125.193C119.88 125.411 132.393 146.722 182.149 174.705L181.314 177.904C130.276 149.195 117.759 127.584 117.247 126.673Z" fill="#FFFFA7"/>
<path d="M212.361 173.032C210.576 172.35 208.278 171.3 206.045 170.198L207.26 163.666C210.184 165.287 212.914 167.02 214.756 168.341C218.366 171.019 220.011 172.982 219.509 173.808C218.982 174.771 216.236 174.371 212.361 173.032ZM221.766 168.786C217.817 166.043 212.88 163.056 207.868 160.132L208.978 152.866C214.329 156.128 220.51 160.364 223.127 162.704L232.429 165.005C227.66 160.872 217.95 154.301 209.72 149.385L210.303 145.996L198.577 140.057L198.084 143.524C189.742 139.866 181.715 137.226 177.408 136.926C173.37 136.477 172.362 137.739 174.297 140.59C177.611 145.284 186.729 151.148 195.751 156.669L194.396 163.947C184.73 158.545 174.914 152.413 170.42 149.594L165.628 150.507C174.269 155.974 184.307 162.232 193.828 167.457L193.103 171.326L204.793 177.293L205.46 173.594C209.325 175.46 213.005 177.172 216.461 178.492C224.356 181.346 230 182.059 231.103 179.961C232.26 177.961 228.727 173.777 221.766 168.786ZM185.362 144.786C184.874 144.273 184.626 143.367 186.592 143.546C188.787 143.875 192.986 145.149 197.516 147.035L196.323 153.156C190.956 149.773 186.774 146.884 185.362 144.786Z" fill="#FF8700"/>
<path d="M212.674 171.404C210.854 170.866 208.67 169.749 206.331 168.709L207.505 161.934C210.498 163.775 213.206 165.384 215.116 166.817C218.614 169.292 220.291 171.23 219.823 172.296C219.323 173.381 216.616 172.958 212.674 171.404ZM222.051 167.304C218.078 164.425 213.051 161.38 208.123 158.401L209.409 151.554C214.633 154.766 220.756 158.898 223.501 161.288L232.639 163.567C228.026 159.35 218.315 152.767 209.894 147.968L210.483 144.308L198.863 138.569L198.334 142.056C190.066 138.362 182.057 135.574 177.552 135.265C173.747 134.956 172.687 136.227 174.58 139.097C177.927 143.662 187.068 149.765 196.021 155.059L194.737 162.556C185.016 157.048 175.202 150.929 170.775 148.052L165.893 148.887C174.67 154.419 184.535 160.639 194.15 165.94L193.464 169.794L205.193 175.738L205.819 172.049C209.689 173.933 213.424 175.736 216.726 176.871C224.639 179.852 230.287 180.563 231.487 178.545C232.547 176.465 229.081 172.242 222.051 167.304ZM185.644 143.299C185.27 142.72 184.898 141.872 186.799 142.103C188.993 142.158 193.304 143.642 197.7 145.468L196.683 151.631C191.314 148.235 187.099 145.372 185.644 143.299Z" fill="#FFFF90"/>
</g>
<path d="M286.997 217.261L288.161 210.628L269.106 179.509C258.717 165.905 234.302 159.48 215.235 146.794C179.812 123.016 150.457 106.329 123.688 108.028L97.8814 108.909L96.9135 110.525C92.8158 126.946 87.7548 134.646 92.5168 146.478C100.55 166.471 125.908 187.581 153.48 205.95C168.074 215.676 182.281 222.175 196.84 228.848C231.846 244.783 264.844 251.943 279.148 238.369C282.701 235.121 286.016 221.675 286.997 217.261Z" fill="#FFA900"/>
<path d="M130.71 141.738L122.486 180.906C130.201 188.026 139.779 195.187 151.542 202.236L159.916 164.6L130.71 141.738Z" fill="#FFC200"/>
<path d="M203.163 176.028L192.778 225.217C203.4 230.663 213.731 235.427 223.45 238.94L232.322 198.794L203.163 176.028Z" fill="#FFC200"/>
<path d="M283.794 216.472C266.226 224.644 211.456 206.741 161.473 176.289C111.239 145.846 84.8623 114.449 102.351 106.323C119.864 98.0523 174.672 116.044 224.799 146.556C274.83 177 301.315 208.328 283.794 216.472Z" fill="#FF9900"/>
<path d="M283.661 214.417C265.784 222.768 210.836 204.994 160.734 174.592C110.668 144.181 84.4808 112.681 102.294 104.237C120.092 95.9324 175.133 113.789 225.241 144.182C275.227 174.638 301.473 205.98 283.661 214.417Z" fill="#FFD900"/>
<path d="M251.497 161.989C243.674 156.179 235.039 150.188 225.245 144.18C175.138 113.787 120.096 95.9309 102.299 104.235C98.9305 105.793 97.5258 108.457 97.1891 111.566C138.281 129.94 213.128 160.995 251.497 161.989Z" fill="#FFF600"/>
<path d="M261.374 200.941C247.968 207.234 206.451 193.748 168.67 170.805C130.884 147.865 111.096 124.062 124.565 117.863C137.955 111.448 179.52 125.03 217.308 147.975C255.089 170.925 274.766 194.519 261.374 200.941Z" fill="#FFA900"/>
<path d="M121.495 131.966C119.381 128.162 118.554 124.841 119.047 122.088C119.513 119.494 121.107 117.556 123.807 116.31C137.634 109.685 178.901 122.966 217.74 146.551C240.75 160.53 258.2 175.536 264.41 186.709C266.518 190.503 267.34 193.834 266.867 196.603C266.416 199.216 264.823 201.193 262.14 202.478C248.432 208.925 206.312 195.349 168.233 172.229C145.212 158.25 127.736 143.197 121.495 131.966ZM262.115 188.044C256.248 177.488 239.338 163.04 216.878 149.402C179.383 126.636 138.319 113.184 125.329 119.407C123.313 120.34 122.146 121.674 121.842 123.393C121.507 125.273 122.166 127.71 123.793 130.637C129.691 141.25 146.628 155.737 169.106 169.379C206.477 192.072 247.532 205.537 260.612 199.391C262.603 198.431 263.776 197.061 264.073 195.311C264.4 193.415 263.741 190.97 262.115 188.044Z" fill="#FF9900"/>
<path d="M107.663 128.7L110.175 127.22C110.296 127.438 122.809 148.749 172.565 176.732L171.73 179.931C120.692 151.222 108.175 129.611 107.663 128.7Z" fill="#FFFFA7"/>
<defs>
<filter id="filter0_f_60_4874" x="0" y="0" width="399" height="343.673" filterUnits="userSpaceOnUse" color-interpolation-filters="sRGB">
<feFlood flood-opacity="0" result="BackgroundImageFix"/>
<feBlend mode="normal" in="SourceGraphic" in2="BackgroundImageFix" result="shape"/>
<feGaussianBlur stdDeviation="50" result="effect1_foregroundBlur_60_4874"/>
</filter>
</defs>
</svg>
