<svg width="136" height="104" viewBox="0 0 136 104" fill="none" xmlns="http://www.w3.org/2000/svg">
<g filter="url(#filter0_f_68_1506)">
<path d="M41.8475 54.7791H24.4126C21.7973 54.7791 20.0538 55.9366 20.0538 57.6729V80.823C20.0538 82.5593 21.7973 83.7168 24.4126 83.7168H41.8475C44.4628 83.7168 46.2063 82.5593 46.2063 80.823V57.6729C46.2063 55.9366 44.4628 54.7791 41.8475 54.7791ZM111.587 43.204H94.1524C91.5372 43.204 89.7937 44.3615 89.7937 46.0978V80.823C89.7937 82.5593 91.5372 83.7168 94.1524 83.7168H111.587C114.203 83.7168 115.946 82.5593 115.946 80.823V46.0978C115.946 44.3615 114.203 43.204 111.587 43.204ZM76.7175 20.0538H59.2825C56.6673 20.0538 54.9238 21.2113 54.9238 22.9476V80.823C54.9238 82.5593 56.6673 83.7168 59.2825 83.7168H76.7175C79.3327 83.7168 81.0762 82.5593 81.0762 80.823V22.9476C81.0762 21.2113 79.3327 20.0538 76.7175 20.0538Z" fill="#50149A"/>
</g>
<path d="M46.2244 60.7109H28.7894C26.1742 60.7109 24.4307 62.0131 24.4307 63.9664V90.0104C24.4307 91.9637 26.1742 93.2659 28.7894 93.2659H46.2244C48.8396 93.2659 50.5831 91.9637 50.5831 90.0104V63.9664C50.5831 62.0131 48.8396 60.7109 46.2244 60.7109ZM115.964 47.689H98.5293C95.914 47.689 94.1705 48.9912 94.1705 50.9445V90.0104C94.1705 91.9637 95.914 93.2659 98.5293 93.2659H115.964C118.579 93.2659 120.323 91.9637 120.323 90.0104V50.9445C120.323 48.9912 118.579 47.689 115.964 47.689ZM81.0943 21.645H63.6593C61.0441 21.645 59.3006 22.9472 59.3006 24.9005V90.0104C59.3006 91.9637 61.0441 93.2659 63.6593 93.2659H81.0943C83.7096 93.2659 85.4531 91.9637 85.4531 90.0104V24.9005C85.4531 22.9472 83.7096 21.645 81.0943 21.645Z" fill="#9345F3"/>
<defs>
<filter id="filter0_f_68_1506" x="0" y="0" width="136" height="103.771" filterUnits="userSpaceOnUse" color-interpolation-filters="sRGB">
<feFlood flood-opacity="0" result="BackgroundImageFix"/>
<feBlend mode="normal" in="SourceGraphic" in2="BackgroundImageFix" result="shape"/>
<feGaussianBlur stdDeviation="10" result="effect1_foregroundBlur_68_1506"/>
</filter>
</defs>
</svg>
