<svg width="733" height="6" viewBox="0 0 733 6" fill="none" xmlns="http://www.w3.org/2000/svg">
<g opacity="0.6">
<mask id="mask0_553_654" style="mask-type:luminance" maskUnits="userSpaceOnUse" x="-1" y="-4" width="735" height="14">
<path d="M0.0288096 -3.39465L733.011 0.699137L732.961 9.55079L-0.0206279 5.457L0.0288096 -3.39465Z" fill="white"/>
</mask>
<g mask="url(#mask0_553_654)">
<path d="M464.377 0.757129C469.914 0.590862 463.19 0.457794 464.006 0.292893C462.528 0.3401 459.377 0.319421 460.873 0.435609C457.956 0.120457 452.099 0.639256 448.949 0.390585C448.814 0.423723 450.635 0.523239 448.47 0.609745C445.221 0.650138 445.455 0.49739 444.125 0.434503C443.162 0.5308 438.233 0.608027 438.711 0.561402C436.553 0.647942 441.02 0.873164 438.01 1.01965C435.973 1.24243 433.191 1.0636 430.788 1.13028C427.889 0.984687 433.669 1.01697 434.871 0.940497L426.687 1.06116C424.272 0.955244 427.761 0.848405 430.176 0.868056C426.909 0.738893 422.703 0.875617 421.746 1.05513C419.699 1.02213 418.613 1.06229 416.689 0.99608C418.602 0.889684 418.475 0.580867 421.473 0.520585C426.42 0.529728 419.688 0.763261 423.899 0.799107L424.256 0.613153C426.057 0.712568 427.493 0.56961 429.43 0.552701C430.509 0.595698 429.19 0.619147 428.473 0.649032C431.967 0.625414 434.75 0.717981 437.387 0.498549C432.668 0.339704 425.58 0.589739 423.515 0.384099L414.14 0.664496C414.14 0.750764 417.407 0.879927 414.758 1.01302C413.662 0.797389 410.891 0.70797 407.268 0.678493C408.616 0.910937 401.492 0.905044 403.318 1.09086C404.999 0.967762 405.856 1.16357 406.089 1.18336C402.588 1.20387 405.621 1.39951 403.703 1.4196C397.309 1.38389 403.93 1.26682 397.659 1.19791C398.984 1.08822 402.351 0.842056 405.827 0.735148C405.583 0.629026 402.345 0.758835 400.881 0.642818C402.94 0.762156 399.445 0.868961 401.143 0.918498C396.079 1.03194 390.186 1.29173 384.049 1.35914C384.995 1.00701 394.393 1.06874 392.446 0.657328C389.441 0.717576 389.459 0.890213 387.038 0.870528C384.991 0.664991 379.939 0.861691 375.831 0.878805L377.652 0.981403C376.094 1.0713 373.201 1.012 371.386 0.998789L371.859 0.949049L370.074 1.01919C369.792 1.01145 369.731 1.00187 369.731 0.989546C367.769 1.10183 362.749 1.01217 358.984 1.08358C358.996 1.2531 362.718 1.07978 364.52 1.09601C365.01 1.13264 368.498 1.19525 366.818 1.31835C362.134 1.33225 358.884 1.54518 353.587 1.55257L355.273 1.59895C353.586 1.7251 351.306 1.66923 348.774 1.68282C344.189 1.57711 352.135 1.43662 349.358 1.34717C351.155 1.19082 354.293 1.35316 354.766 1.13397L351.874 0.905218C349.464 1.05505 346.799 0.842979 345.113 0.88286L346.927 0.982342C346.576 1.16833 344.891 1.03568 344.039 1.00935L345.264 1.27808C347.906 1.31748 349.716 1.07494 351.64 1.22742C346.949 1.32755 348.039 1.54007 342.381 1.56084C342.124 1.45773 343.472 1.52072 344.055 1.44079C342.125 1.37147 340.094 1.59429 336.962 1.51826C338.753 1.44507 341.653 1.33186 339.349 1.19575L337.674 1.40207C336.233 1.37246 336.822 1.29256 336.228 1.28924C334.174 1.2562 336.705 1.49833 333.456 1.45554C332.972 1.41586 331.893 1.37286 332.366 1.3262C328.632 1.32692 330.575 1.39631 327.093 1.50319C330.213 1.49596 330.34 1.80478 327.097 1.84521C322.518 1.8258 319.402 2.00559 316.253 1.75692L314.211 1.8934C315.518 1.70043 311.311 1.83715 309.859 1.80747C309.369 1.59831 316.725 1.79344 316.72 1.4545C313.705 1.42533 315.017 1.31866 315.986 1.22548C312.725 1.2658 314.783 1.47141 313.348 1.61437C313.342 1.52807 307.8 1.60187 309.72 1.40924C306.949 1.40609 306.476 1.62528 304.435 1.58923C304.742 1.50468 305.092 1.39571 304.896 1.28987C304.651 1.35936 302.033 1.28004 301.531 1.27415C302.003 1.31376 300.573 1.45675 302.977 1.39006C302.381 1.5562 297.312 1.41081 297.446 1.5502C297.196 1.36086 292.26 1.52432 289.735 1.45168C289.996 1.89989 294.42 1.26833 295.276 1.63359C291.916 1.79661 283.953 1.67819 278.539 1.89136C273.85 1.81587 278.54 1.71882 277.572 1.55628C281.894 1.47259 282.991 1.60195 286.725 1.51189C282.624 1.44585 275.887 1.50682 272.882 1.65333C268.413 1.68691 267.913 1.21888 262.493 1.34574C263.222 1.48846 263.105 1.5217 264.797 1.5712C263.35 1.62782 261.658 1.57832 260.101 1.58195C259.144 1.67828 262.516 1.68787 260.351 1.77437C259.505 1.74808 257.703 1.73494 258.053 1.63521L258.415 1.62183C253.246 1.7655 254.659 1.28042 250.219 1.56989C250.58 1.63969 251.543 1.54648 252.634 1.58954C253.48 1.69902 250.726 1.86543 248.666 1.91554C249.034 1.81592 246.864 1.9024 245.417 1.87275C244.444 1.71018 249.034 1.81592 249.746 1.70282L245.768 1.68676L246.608 1.70994L242.285 1.8799C245.301 1.81972 243.736 2.08212 242.412 2.10553C239.409 2.07951 236.386 2.05339 236.743 1.86744C236.386 2.05339 232.653 2.05719 230.005 2.10402C232.904 2.16335 230.378 2.26016 229.538 2.32325L225.192 2.15109C229.772 2.08423 224.224 1.98855 225.298 1.85897C226.611 1.66604 229.387 1.75549 231.803 1.77514C227.084 1.44684 225.181 1.97848 221.081 1.82618C221.075 1.73988 221.437 1.64022 223.239 1.65337C222.516 1.59695 219.505 1.8297 216.735 1.7372C217.464 1.79673 219.038 1.96266 216.273 2.04273L212.651 1.84072C208.428 1.80481 211.21 2.06991 207.733 2.17682L210.019 2.31591C209.668 2.5019 205.323 2.32974 205.212 2.53246C207.376 2.53223 208.584 2.3726 210.858 2.42535C211.721 2.6212 207.976 2.53866 206.67 2.64845C201.962 2.57286 202.931 2.56594 199.425 2.41696C199.286 2.10807 205.19 2.0178 204.432 1.61919C199.865 1.68303 193.243 1.80011 190.234 1.68779C186.138 1.79124 186.517 2.03676 187.123 2.21268C185.431 2.24945 184.597 2.22322 183.506 2.18016L185.432 2.07691C180.374 2.19039 177.492 2.3037 172.183 2.31102C169.185 2.37131 170.398 2.5537 171.12 2.69638L167.871 2.73678L168.367 2.77652C167.643 2.97583 164.756 2.91965 162.586 2.91677C162.58 2.83047 163.904 2.80706 163.776 2.75396C161.852 2.68775 158.958 2.71473 157.4 2.80462C157.395 2.71832 158.708 2.52538 161 2.57824C161.239 2.59806 161.122 2.62822 161.361 2.64804L165.212 2.52782C160.767 2.64472 158.101 2.43264 158.207 2.22988C153.755 2.34675 161.841 2.43196 156.538 2.52251C149.539 2.14142 143.295 2.67038 139.412 2.10643C136.168 2.2362 132.324 2.44273 127.26 2.46991C127.265 2.64247 123.888 2.5435 124.383 2.75578C129.213 2.96454 133.403 2.39946 137.281 2.70766C139.434 2.62109 138.705 2.47837 139.674 2.38519C141.587 2.36506 143.401 2.38135 143.652 2.48443C139.201 2.60438 142.467 2.90608 136.808 2.92377C137.531 3.06954 142.11 3.00268 144.158 3.03877C143.563 3.11863 144.169 3.21137 145.499 3.27118C144.051 3.41406 140.82 3.54083 139.134 3.66698C139.729 3.58403 138.638 3.54096 139.122 3.49437L133.23 3.75416C131.416 3.6516 130.926 3.5287 131.895 3.43552C128.628 3.38954 123.109 3.63602 123.086 3.37708C118.874 3.4275 124.428 3.5263 124.789 3.59918L124.427 3.61257L128.884 3.57892C129.385 3.87442 123.815 3.5198 123.114 3.80859C122.425 4.35009 116.832 3.65334 113.717 3.74378L117.312 3.34483L114.179 3.44133C115.982 3.28194 115.965 3.02612 118.724 2.86283C114.396 2.86022 108.236 2.75803 105.465 2.83807C104.38 2.70877 103.897 2.58282 104.376 2.44993C100.046 2.70613 97.6208 2.34442 93.8814 2.34819C89.9204 2.50168 97.8711 2.53376 94.9827 2.73331C93.7817 2.63725 91.6111 2.72064 90.5319 2.76391C91.7339 2.69051 95.9569 2.80961 98.8562 2.86894C96.68 2.86603 96.9303 3.05846 96.3291 3.13829L99.9519 3.16776C99.7176 3.40678 95.495 3.19833 93.8207 3.32455C94.8825 3.11172 94.294 3.10227 95.3557 2.88945C92.2288 2.98598 87.533 2.99673 84.8731 2.87095C83.3042 2.79133 86.1918 2.76124 87.0319 2.70123C86.3094 2.55854 83.9111 2.79472 83.2991 2.61876C83.7718 2.48583 85.2179 2.60174 86.3094 2.55854L77.151 2.51664C77.1515 2.43037 79.4321 2.39689 80.8726 2.4265C78.0961 2.33705 76.0606 2.3873 72.8221 2.68657C69.6839 2.60742 66.0738 2.49482 67.1351 2.36518C65.6941 2.42184 66.6623 2.49811 66.6741 2.58444C62.4505 2.54853 61.9891 2.85406 59.4633 2.86768L61.3874 3.02016C57.2871 2.86477 60.4418 3.28601 56.8256 3.1703C57.4089 3.0041 57.1709 2.81483 56.5528 2.63575C55.9572 2.80189 53.6653 2.66584 52.102 2.66944C53.0758 2.83201 48.7418 2.82937 51.2727 2.98832C47.655 3.12833 45.9704 2.90941 43.3271 3.1288C45.0065 3.17516 40.2058 3.30856 41.658 3.42143C38.1575 3.44501 35.7494 3.25286 36.6945 3.07019C37.9082 3.08005 39.8389 3.14938 39.7048 3.00998L33.3291 3.06064C31.7479 2.97786 29.7067 2.9449 29.4503 2.75552C27.4138 2.97831 23.4251 2.62019 21.8726 2.88266C24.0314 2.70985 25.7344 2.92887 26.5619 2.95506L25.5747 2.99268C25.7218 2.9935 25.8751 2.99436 26.0896 3.00172L23.3475 3.33765C25.995 3.46335 23.8085 3.11839 27.5541 3.11774C30.8075 3.41937 20.2196 3.60364 23.6024 3.78583C26.3728 3.87833 25.8779 3.58286 28.159 3.46312L27.5644 3.45979L32.7391 3.31307C32.9838 3.4192 31.42 3.50906 31.42 3.50906C37.6852 3.49167 38.659 3.65425 45.4083 3.67654C44.9181 3.63683 43.5835 3.31818 46.5938 3.25797C48.7521 3.17143 49.0085 3.36389 50.8046 3.377C49.7316 3.4203 48.7681 3.59979 47.3281 3.48699L47.4495 3.7095C42.4027 3.99251 45.0621 4.20455 38.2018 4.3018C37.8882 4.46643 32.9161 4.56498 29.1829 4.52872L31.0028 4.67137C27.1637 4.9642 30.2623 4.44232 25.3384 4.69212C23.2802 4.40024 19.5182 4.06188 22.2782 3.80924C18.7782 3.74656 17.588 3.90629 14.4493 3.91649C12.5135 3.67768 15.4009 3.65067 15.0345 3.40522C12.7416 3.43863 9.85363 3.5519 11.5571 3.68774L7.20511 3.59873C7.08893 3.54571 8.64603 3.54208 9.25902 3.54858C7.56122 3.49905 4.31762 3.62574 3.36076 3.72207C3.72252 3.70869 4.81395 3.66549 5.28577 3.70201C3.48309 3.77205 0.239469 3.90183 1.86988e-05 3.96828C2.64288 3.83823 2.89269 4.11076 5.65834 3.9475C5.42502 4.01398 4.95225 4.14691 3.50568 4.11726C5.79761 4.25639 8.08436 4.22602 9.05205 4.38548C7.11556 4.26683 5.88235 4.45097 5.47761 4.47644C7.21223 4.52001 10.6639 4.46535 11.8229 4.39171C12.0849 4.66739 18.5665 4.3277 16.2967 4.61697C16.6528 4.51728 19.1847 4.50369 20.5146 4.56658C20.3974 4.68609 17.0315 4.75972 15.5963 4.90268C8.84602 5.05292 15.7077 4.69995 14.1327 4.61721L8.98314 4.65007C9.504 4.68687 6.9284 4.8481 10.2818 4.8237C8.72984 4.99989 5.48011 5.12656 2.83255 5.00085C2.22519 5.08373 4.15633 5.0637 4.75706 5.07014C4.16196 5.15309 0.917413 5.44923 5.14095 5.48515C3.92721 5.47529 7.17695 5.34863 5.00734 5.25948C6.69334 5.22576 11.272 5.33144 9.46888 5.48775C11.5228 5.43452 15.3672 5.31118 17.0532 5.27438C17.5429 5.40036 15.6122 5.33104 14.7659 5.39409L20.676 5.30386L18.9786 5.17114C23.3122 5.26004 26.0727 4.92114 29.5614 4.81122C29.0882 5.03041 26.1945 5.06046 23.9134 5.17713C26.1066 5.43587 25.3487 5.03725 28.9654 5.0667C29.4556 5.10333 29.5779 5.15639 29.3446 5.22287L32.2208 5.02326C33.0605 5.04643 32.5882 5.09617 32.2203 5.10952C37.1565 4.8598 32.0933 4.80071 38.7146 4.68363C34.7244 4.58124 35.3359 4.84347 31.9766 4.83395C30.0281 4.67826 35.8035 4.53797 36.7726 4.44479C40.0214 4.48758 40.3997 4.81629 44.4896 4.62962C41.6078 4.73985 44.3781 4.83235 40.283 4.84953C38.0019 4.96928 41.4963 4.94566 41.9798 5.0716C43.059 5.02833 41.2516 4.84261 44.2614 4.86559L44.1448 4.89883L49.0626 4.649C53.6597 4.75478 59.406 4.35861 62.5616 4.60731L61.8212 4.37826C64.7087 4.35125 68.8037 4.33407 70.8515 4.2808C70.3788 4.41373 68.4477 4.43067 66.406 4.48397C71.592 4.50985 76.1599 4.35974 79.6429 4.1666C77.0998 4.00759 76.738 4.02097 74.3233 3.91506C77.6784 3.58255 78.3192 4.10375 82.6481 3.93382C82.7755 4.15637 81.329 4.1298 82.4128 4.34537C84.216 4.18598 87.2319 4.21207 89.2741 4.0725C90.3702 4.28814 88.4565 4.47772 84.0057 4.5114C80.6168 4.3261 76.8999 4.67507 74.1178 4.49623L75.8089 4.632C72.4369 4.7056 70.3896 4.6726 67.5077 4.78591L67.6244 4.75267L66.1887 4.97881L67.7519 4.97522C66.6722 5.10475 63.4343 5.31775 62.4718 5.3247C67.2965 5.28078 67.6296 4.92216 69.9112 4.71922C74.2514 4.7219 75.9595 5.11041 78.8418 4.91391C79.0803 5.01692 81.5012 5.12595 79.5757 5.2292C77.1723 5.2928 75.475 5.16008 75.2473 5.31286C77.773 5.29924 76.8162 5.39557 80.6662 5.35853C81.3845 5.15611 84.2607 4.95958 87.0141 4.79318C89.9082 4.67994 93.6416 4.67614 95.9401 4.72903C93.0465 4.75908 90.1641 4.95558 90.899 5.10141C92.5798 4.88896 96.5625 5.25013 95.7058 4.96805C99.0774 4.97763 104.742 4.95689 105.114 5.1993C101.932 5.2986 98.8373 5.15808 96.1335 5.21692C96.8814 5.2211 97.6106 5.28063 97.175 5.33982L93.1904 5.32373C96.2059 5.43608 95.6108 5.51595 99.4669 5.47894C99.2218 5.45909 98.7377 5.42249 99.0995 5.40911C100.062 5.39908 101.27 5.4089 102.238 5.39891L102.366 5.62146C105.248 5.50815 110.812 5.77955 116.091 5.59952L115.619 5.64618C119.837 5.68206 120.182 5.24032 124.756 5.17343C123.437 5.28314 124.044 5.3728 124.282 5.47889C126.569 5.36226 127.782 5.54157 130.081 5.59446C127.415 5.47174 131.866 5.35487 129.935 5.28555C129.796 5.05985 134.51 5.0492 136.919 5.06882C138.37 5.35422 129.457 5.2459 133.085 5.53422C135.494 5.55383 136.089 5.3877 134.398 5.3382C137.414 5.36429 141.987 5.38675 144.174 5.55918C147.768 5.32968 149.214 5.4456 151.496 5.1564C149.565 5.17334 149.46 5.37919 147.039 5.27323L149.682 5.05383C153.17 5.03326 155.959 5.20905 158.368 5.22867L155.835 5.32852L155.958 5.29532C155.001 5.39165 151.746 5.34574 152.113 5.50492C154.389 5.29888 156.214 5.48778 159.219 5.34126L159.096 5.37447C164.388 5.19451 168.272 5.6722 171.621 5.25647C170.652 5.26339 168.716 5.11084 169.317 5.03101C170.537 5.12409 173.78 5.08367 173.669 5.20321L172.584 5.24644C175.593 5.26942 177.408 5.28571 178.493 5.24248C179.322 5.09613 178.47 4.98354 180.634 4.90011C185.943 4.97906 178.493 5.24248 182.103 5.35815L187.039 5.19469L188.136 5.32406C195.473 5.4359 201.127 4.98376 208.95 4.96274C209.083 5.18841 203.424 5.29545 201.499 5.31551C203.92 5.50465 207.397 5.22521 210.652 5.35738C213.674 5.38042 215.943 5.17742 215.466 5.05151C219.187 4.96138 218.119 5.17725 218.597 5.21381C219.8 4.96788 224.496 5.04341 227.5 4.98316L227.64 5.11951L232.324 4.93616C231.123 4.92329 232.196 4.7968 232.197 4.71361L233.398 4.72032C228.797 4.3557 223.055 5.01379 218.331 4.59611C219.772 4.53946 217.841 4.47321 219.282 4.41656C220.49 4.42639 220.729 4.44313 220.851 4.49619C221.575 4.38315 223.494 4.27987 220.963 4.29346C221.075 4.00138 226.138 4.06047 229.62 3.9536C232.403 4.12935 226.738 4.23944 225.308 4.37935C226.633 4.35594 227.712 4.2264 229.643 4.29572L229.176 4.51495C233.983 4.38158 230.483 4.3189 231.563 4.10618C232.864 3.8269 235.897 4.10881 237.221 4.0854L235.78 4.14206C239.513 4.22453 240.348 3.98887 243.714 4.0015L245.294 4.16746C241.059 3.96203 240.137 4.48682 237.716 4.37779C243.87 4.56929 236.414 4.83267 234.494 5.02222C237.149 4.97543 239.552 4.99501 240.998 5.11092C244.843 4.81505 249.083 5.19305 252.794 4.84713C254.841 4.88013 250.997 5.00347 253.167 5.00635C257.139 5.02237 261.357 4.9689 265.563 4.83526C267.739 4.83509 267.371 4.93471 267.984 5.0244C278.466 5.12916 282.545 4.59735 293.996 4.69212L292.316 4.81522C294.719 4.8348 296.772 4.87092 297.962 4.7081C300.995 5.07628 308.201 4.45102 312.067 4.84234C317.13 4.90143 317.359 4.57611 321.332 4.50895C321.337 4.59217 320.129 4.75488 322.188 4.78795C335.192 4.62333 346.876 4.56535 361.203 4.4605C361.086 4.49374 360.363 4.52359 360.007 4.53701C369.282 4.54568 378.418 4.15919 386.13 4.25772C387.577 4.2011 391.905 4.11436 390.57 3.96825C388.774 3.95206 388.517 3.76268 388.634 3.64317C395.489 3.45962 392.017 3.91163 396.596 3.84477C398.048 4.13326 393.714 4.04435 393.719 4.30319L400.34 4.09985C404.079 4.18235 407.808 4.00907 411.062 4.13816C409.609 4.10848 410.595 4.35739 408.174 4.25144C408.542 4.23809 408.297 4.21823 408.659 4.20176C403.117 4.19238 405.648 4.35133 400.706 4.42849C405.053 4.34493 410.945 4.25767 414.807 4.30697C413.95 4.11115 417.934 4.21351 419.013 4.08398L419.252 4.1038C419.253 4.01753 421.644 3.95078 422.38 3.92099L423.353 4.16983C425.039 4.13304 422.869 4.04697 424.549 4.01014C426.947 3.94342 435.511 3.89574 436.122 4.15796C439.022 4.12794 439.851 3.9816 442.854 4.00762C442.621 4.0741 441.897 4.10395 441.787 4.13414C448.168 4.16978 455.997 4.06562 462.035 4.20101C466.958 4.12067 471.176 4.07028 474.297 3.89052C472.973 3.91394 469.111 3.86464 471.521 3.71172C472.846 3.60512 474.887 3.63809 476.935 3.58791C476.462 3.72083 482.12 3.69698 478.031 3.80046C479.071 4.08665 486.859 3.72344 486.802 4.00966C487.759 3.91641 493.576 3.95199 495.747 3.79465C496.231 3.91751 492.608 3.88804 492.614 3.97434L495.262 3.92751L495.268 4.01381C500.337 4.07293 501.271 3.72075 504.281 3.65745L504.164 3.69377L506.212 3.64051L503.814 3.87976C507.063 3.83629 508.738 3.62688 512.349 3.57311L512.71 3.64291L514.893 3.55958C514.519 3.5729 514.402 3.60614 514.635 3.62593C516.684 3.40321 521.385 3.47568 523.299 3.2861C524.746 3.31267 525.97 3.58448 527.89 3.39185L527.533 3.66407C522.721 3.70806 525.732 3.47839 520.668 3.58876C524.417 3.93013 534.9 3.86236 541.883 3.81816C547.53 3.62479 556.822 3.88928 559.215 3.48053L558.62 3.64667L568.139 3.76146C576.213 3.67407 584.525 3.77595 590.663 3.53601L592.354 3.6687C598.708 3.18965 614.032 3.42313 618.216 2.85493C621.826 2.9706 617.136 3.07073 616.78 3.17042C619.44 3.20993 623.874 2.83415 626.417 3.07943C626.423 3.16265 622.683 3.1695 624.375 3.21592C626.305 3.36843 627.128 3.04951 629.31 3.22191C628.342 3.05937 632.794 2.85624 636.031 2.81578C635.436 2.80937 635.436 2.80937 635.179 2.79253C634.707 2.66666 637.123 2.68631 638.441 2.66594C638.441 2.66594 638.324 2.6961 637.962 2.70948C654.687 2.45473 673.833 2.30593 691.432 2.41655L688.194 2.54328C690.714 2.44644 695.183 2.49912 696.624 2.52874L696.256 2.54209C700.968 2.78716 701.554 2.27897 705.181 2.56729L704.464 2.59409C710.122 2.57024 713.498 2.84174 719.029 2.6816C723.381 2.76753 722.902 2.9035 725.923 3.01281C728.449 2.99919 729.633 2.83634 729.768 2.8032L728.555 2.79334C727.225 2.64727 731.197 2.66329 733 2.59017C731.671 2.35783 732.372 1.98586 727.297 1.75416C723.57 1.84426 723.664 1.38263 719.453 1.43305C717.06 1.75553 713.416 1.21139 709.582 1.50425C711.619 1.28146 704.998 1.39854 708.352 1.1523C706.778 0.98637 700.18 1.3593 697.146 1.16366C697.637 1.11402 697.521 1.06099 698.232 1.03415C694.02 1.17084 695.333 0.888559 692.207 0.898827L692.334 1.12138C691.126 1.19782 690.759 1.04171 689.68 1.0819C690.532 1.10823 692.334 1.20764 691.383 1.30401C689.942 1.36066 688.734 1.43402 687.171 1.43762C687.153 1.35433 688.238 1.31109 688.974 1.28439C688.974 1.28439 685.59 1.27166 685.352 1.16865C686.553 1.09217 688.117 1.08858 689.184 0.958973C684.734 0.906388 688.829 0.889205 686.654 0.71684C687.265 0.979066 682.797 0.83703 680.4 0.903749C680.149 0.797592 682.086 0.866949 682.681 0.784003C678.073 0.333081 675.815 0.881221 669.912 0.798955C670.028 0.765714 670.752 0.735863 671.12 0.722513C668.342 0.802514 666.4 0.563668 664.603 0.72001C661.949 0.680538 664.108 0.424543 660.013 0.441726C661.226 0.710388 655.189 0.402457 655.089 0.694603L651.945 0.529153C649.174 0.695455 652.697 1.01708 647.271 1.05764C642.331 0.965345 647.727 0.579541 644.835 0.437061L643.632 0.596723L641.218 0.493885L641.585 0.477454C640.138 0.534074 637.49 0.494636 637.485 0.411416C637.718 0.341855 639.287 0.338294 639.515 0.27178C637.123 0.4248 629.99 -0.0956836 627.481 0.343217C626.059 0.270574 623.135 0.281971 623.503 0.1423C622.215 0.338455 617.085 0.0972113 615.178 0.225208C615.43 0.15883 613.609 0.0593138 612.169 0.112887C614.099 0.18221 612.891 0.255571 611.585 0.365356C609.875 0.232564 605.068 0.362852 604.334 0.133833C601.685 0.266929 602.659 0.429503 602.082 0.595738C600.378 0.462981 594.959 0.503579 595.904 0.237725C597.363 0.264359 600.618 0.310267 600 0.131194C597.223 0.041741 598.798 0.21075 596.517 0.241148C596.683 0.192777 594.961 0.0814842 595.397 0.0068905C594.048 0.0363294 592.16 0.0411906 590.241 -0.000335974C593.244 0.111951 588.321 0.192293 590.129 0.291741L593.012 0.0921637C596.506 0.0716256 593.747 0.234917 595.076 0.297803C588.927 0.365137 590.152 0.633866 584.377 0.77415C583.292 0.731118 581.361 0.664876 580.754 0.658406C582.685 0.641462 582.307 0.399022 581.209 0.355922C577.984 0.568987 575.423 0.240417 572.775 0.197897C575.068 0.253836 573.865 0.413497 573.031 0.476623C567.495 0.633647 570.855 0.390526 568.441 0.284606C559.901 0.332425 554.459 0.0308962 547.604 0.21445L550.864 0.429847L551.938 0.214007C554.475 0.372988 551.482 0.689026 550.047 0.831982C549.673 0.762113 545.455 0.812501 547.136 0.6894L543.046 0.792884C543.659 0.882575 546.307 0.835746 544.394 0.93906C543.046 0.87607 538.841 0.84334 541.477 0.710175C539.313 0.710414 536.548 0.790483 537.032 0.913346C533.544 0.933918 537.383 0.64109 538.94 0.551195C536.176 0.544998 536.526 0.36209 537.36 0.298965L533.516 0.336037C534.35 0.275993 534.345 0.189691 535.185 0.129681C532.647 0.056968 530.85 0.296496 528.687 0.124199L527.723 0.306764C520.736 0.178386 521.453 0.151581 514.943 0.149112L516.033 0.278446C511.109 0.528241 512.411 0.0764341 505.79 0.190426C502.062 0.280525 499.653 0.347175 500.148 0.556374C497.99 0.642914 497.494 0.516901 496.526 0.44063C494.852 0.563765 491.246 0.790111 488.592 0.667453C490.395 0.597413 491.836 0.540758 493.522 0.500878C493.026 0.291679 487.741 0.471673 484.971 0.379174C483.039 0.482385 476.785 0.758642 473.302 0.951784C474.882 1.11775 474.293 1.37018 471.165 1.5499C471.644 1.41701 466.942 1.4308 464.779 1.34169C465.846 1.21517 459.943 1.04663 464.511 0.982793C465.835 1.04256 466.453 1.21856 468.255 1.14852C467.165 1.01918 464.26 0.876636 461.251 0.764315C461.478 0.6978 463.048 0.607974 464.611 0.604381C463.759 0.664322 464.255 0.704067 464.377 0.757129Z" fill="white"/>
</g>
</g>
</svg>
