<svg width="41" height="41" viewBox="0 0 41 41" fill="none" xmlns="http://www.w3.org/2000/svg">
<path d="M16.2783 0.0270873C17.2645 -0.0891441 18.2583 0.171391 19.0607 0.756547C19.8631 1.3417 20.4148 2.2083 20.6056 3.1829L20.6574 3.52917L20.6678 3.74481V18.2591C20.6679 18.7669 20.8543 19.2571 21.1918 19.6366C21.5293 20.0161 21.9943 20.2586 22.4987 20.318L22.7413 20.3325H36.8408C37.9406 20.3325 38.9954 20.7694 39.7731 21.5471C40.5508 22.3248 40.9877 23.3796 40.9877 24.4794C40.9876 24.6372 40.9696 24.7944 40.9338 24.948C40.104 28.5282 38.3376 31.8235 35.8154 34.4965C33.2933 37.1694 30.106 39.124 26.5799 40.1601C23.0539 41.1961 19.3159 41.2764 15.7487 40.3927C12.1814 39.5089 8.91318 37.693 6.27858 35.1307C3.64399 32.5685 1.73773 29.3521 0.755024 25.8108C-0.22768 22.2696 -0.25152 18.5308 0.685947 14.9773C1.62341 11.4238 3.4885 8.18329 6.09021 5.58767C8.69192 2.99204 11.9368 1.13455 15.4924 0.205405L16.0523 0.0664832L16.2783 0.0270873Z" fill="#A067E7"/>
<path d="M24.8148 2.70457V14.1086C24.8148 14.6585 25.0332 15.1859 25.4221 15.5748C25.8109 15.9636 26.3383 16.1821 26.8882 16.1821H38.2923C38.6237 16.182 38.9503 16.1024 39.2446 15.9501C39.5389 15.7978 39.7925 15.5772 39.984 15.3067C40.1755 15.0362 40.2994 14.7237 40.3452 14.3955C40.3911 14.0673 40.3576 13.7328 40.2475 13.4202C39.2177 10.4953 37.545 7.83852 35.3525 5.64564C33.1599 3.45276 30.5035 1.77957 27.5787 0.74929C27.2659 0.638845 26.9313 0.605034 26.6028 0.650693C26.2743 0.696352 25.9615 0.820149 25.6907 1.01169C25.42 1.20324 25.1991 1.45694 25.0467 1.75151C24.8943 2.04607 24.8147 2.3729 24.8148 2.70457Z" fill="#A067E7"/>
</svg>
