<svg width="136" height="113" viewBox="0 0 136 113" fill="none" xmlns="http://www.w3.org/2000/svg">
<g filter="url(#filter0_f_68_1508)">
<path d="M37.6381 52.8547L65.2791 20.0483L92.9201 52.8547H37.6381ZM92.9201 92.9514C86.638 92.9514 81.2991 91.3572 76.9034 88.1689C72.5076 84.9806 70.3081 81.107 70.3047 76.5482C70.3014 71.9893 72.5009 68.1169 76.9034 64.9311C81.3058 61.7452 86.6447 60.1499 92.9201 60.145C99.1954 60.1401 104.536 61.7355 108.942 64.9311C113.348 68.1267 115.546 71.999 115.535 76.5482C115.525 81.0973 113.328 84.9709 108.942 88.1689C104.556 91.3669 99.2155 92.9611 92.9201 92.9514ZM20.0483 91.1288V61.9676H60.2534V91.1288H20.0483Z" fill="#50149A"/>
</g>
<path d="M42.3926 55.7074L70.0336 20.0483L97.6747 55.7074H42.3926ZM97.6747 99.2907C91.3926 99.2907 86.0537 97.558 81.6579 94.0924C77.2622 90.6269 75.0626 86.4165 75.0593 81.4612C75.0559 76.5059 77.2555 72.2968 81.6579 68.8339C86.0604 65.371 91.3993 63.6369 97.6747 63.6317C103.95 63.6264 109.291 65.3605 113.696 68.8339C118.102 72.3074 120.3 76.5165 120.29 81.4612C120.28 86.4059 118.082 90.6163 113.696 94.0924C109.311 97.5685 103.97 99.3013 97.6747 99.2907ZM24.8029 97.3097V65.6127H65.008V97.3097H24.8029Z" fill="#9345F3"/>
<defs>
<filter id="filter0_f_68_1508" x="0" y="0" width="135.584" height="113" filterUnits="userSpaceOnUse" color-interpolation-filters="sRGB">
<feFlood flood-opacity="0" result="BackgroundImageFix"/>
<feBlend mode="normal" in="SourceGraphic" in2="BackgroundImageFix" result="shape"/>
<feGaussianBlur stdDeviation="10" result="effect1_foregroundBlur_68_1508"/>
</filter>
</defs>
</svg>
