<svg width="479" height="396" viewBox="0 0 479 396" fill="none" xmlns="http://www.w3.org/2000/svg">
<path d="M300.605 88.7321C297.882 88.7321 293.557 87.5225 291.804 80.2355C291.453 78.7921 292.348 77.3136 293.791 76.963C295.228 76.6124 296.713 77.5065 297.063 78.9498C298.191 83.6657 300.295 83.391 301.072 83.3151C305.046 82.8067 309.294 77.6233 309.294 76.0631C309.212 74.5846 310.381 73.299 311.865 73.2581C313.344 73.1821 314.629 74.3509 314.67 75.8293C314.904 80.7439 307.851 87.7972 301.89 88.6562C301.505 88.6912 301.072 88.7321 300.605 88.7321Z" fill="#0F4C75"/>
<path d="M182.305 88.7321C181.803 88.7321 181.376 88.6912 181.026 88.6562C175.065 87.7972 168.053 80.7439 168.246 75.8293C168.327 74.3509 169.572 73.1821 171.051 73.2581C172.529 73.3341 173.698 74.5846 173.622 76.0631C173.622 77.6233 177.87 82.8067 181.844 83.3151C182.621 83.391 184.684 83.6657 185.853 78.9498C186.203 77.5065 187.647 76.6124 189.125 76.963C190.568 77.3136 191.462 78.757 191.112 80.2355C189.359 87.5225 184.994 88.7321 182.305 88.7321Z" fill="#0F4C75"/>
<path fill-rule="evenodd" clip-rule="evenodd" d="M76.4358 72.9485L403.05 70.5292V81.3633H79.1999L76.4358 72.9485Z" fill="#A0DDF9"/>
<path d="M244.359 189.401C237.931 191.663 232.362 191.195 227.728 188.858C263.678 174.944 259.863 125.875 235.559 116.367C274.974 103.307 289.741 173.542 244.359 189.401Z" fill="#D7F0FC"/>
<path d="M227.728 188.858C205.33 177.714 203.769 123.888 225.157 125.951L234.776 116.601C235.051 116.519 235.284 116.402 235.559 116.326C259.863 125.916 263.679 174.985 227.728 188.858Z" fill="white"/>
<path d="M263.328 276.473C261.499 279.009 250.787 280.646 240.386 281.271C243.348 280.564 245.487 279.67 246.229 278.694C257.291 263.494 250.939 216.102 243.191 196.228C241.362 191.547 239.492 188.433 237.698 187.533L222.393 187.965C222.586 187.223 222.779 186.598 222.972 186.206L254.796 185.312C256.549 186.206 258.46 189.367 260.289 194.002C268.044 213.882 274.39 261.274 263.328 276.473Z" fill="#D7F0FC"/>
<path d="M246.229 278.691C245.487 279.707 243.348 280.561 240.386 281.268C231.386 281.811 222.627 281.577 220.056 280.525C210.39 276.511 218.454 202.261 222.428 187.921L237.739 187.494C239.492 188.388 241.397 191.544 243.232 196.184C250.939 216.099 257.291 263.456 246.229 278.691Z" fill="white"/>
<path d="M236.295 193.575C234.156 193.575 232.053 193.265 230.025 192.681C225.742 191.395 221.885 188.818 218.536 184.961C213.078 178.685 209.186 169.061 207.825 158.495C206.498 148.246 207.667 138.58 211.056 132.035C214.247 125.8 219.389 122.72 225.426 123.305C225.701 123.34 225.975 123.381 226.209 123.498C226.752 119.249 229.674 115.626 233.923 114.107C244.517 110.326 254.603 111.886 262.358 118.507C263.252 119.29 264.105 120.108 264.923 121.002C271.626 116.094 275.6 110.601 275.909 105.885C276.108 102.723 274.238 100.269 270.381 98.5159C262.86 95.1266 255.346 97.6569 251.214 100.894C248.643 102.881 247.907 104.675 247.907 105.178C248.292 105.452 249.893 105.885 253.552 105.143C255.03 104.868 256.432 105.803 256.707 107.287C256.982 108.766 256.047 110.168 254.562 110.443C248.608 111.612 244.751 110.717 243.15 107.79C241.747 105.259 242.565 101.987 245.487 98.7906C250.045 93.841 261.031 88.3421 272.602 93.5663C278.557 96.2544 281.636 100.736 281.286 106.194C280.859 112.587 276.26 119.331 268.237 125.251C274.08 134.18 276.494 146.492 274.273 158.378C271.275 174.32 260.722 186.557 245.294 191.98C242.18 193.031 239.176 193.575 236.295 193.575ZM223.988 128.646C220.599 128.646 217.835 130.633 215.848 134.53C210.156 145.598 212.143 169.37 222.627 181.414C228.272 187.924 235.284 189.753 243.5 186.872C262.083 180.362 267.419 165.63 268.938 157.408C270.925 146.843 268.862 136.009 263.755 128.254C256.316 132.736 247.088 136.167 239.527 136.167C237.739 136.167 236.061 135.968 234.507 135.541C230.609 134.49 227.728 131.761 226.595 128.254C226.092 128.564 225.508 128.722 224.882 128.681C224.573 128.646 224.298 128.646 223.988 128.646ZM244.985 117.455C242.022 117.455 238.907 118.04 235.676 119.173C232.438 120.301 231.386 123.106 231.468 125.134C231.585 127.67 233.221 129.616 235.869 130.317C241.595 131.836 251.489 129.189 260.289 124.006C259.822 123.498 259.319 123.03 258.77 122.603C254.796 119.214 250.121 117.455 244.985 117.455Z" fill="#0F4C75"/>
<path d="M231.077 284.268C226.051 284.268 221.224 283.958 219.004 283.023C217.367 282.357 216.158 280.878 215.223 278.541C211.407 268.911 212.885 243.07 214.13 228.537C215.807 208.732 218.688 189.25 220.558 185.077C221.183 183.716 222.779 183.131 224.14 183.716C225.508 184.335 226.092 185.936 225.508 187.298C224.105 190.418 220.833 210.684 219.155 234.106C218.302 245.998 218.028 256.323 218.419 263.961C219.004 276.163 220.99 277.916 221.183 278.033C223.088 278.81 231.468 279.16 241.788 278.459C254.136 277.606 260.254 275.771 261.224 274.836C271.001 261.314 266.092 216.177 257.835 194.977C255.345 188.624 253.744 187.765 253.668 187.73C252.342 187.064 251.798 185.428 252.459 184.101C253.125 182.781 254.761 182.231 256.082 182.898C257.601 183.634 259.938 185.504 262.86 193.031C267.027 203.707 270.457 220.893 271.626 236.8C272.602 250.48 272.368 268.718 265.589 278.073C264.73 279.242 262.942 280.762 256.514 282.088C252.809 282.865 248.058 283.45 242.723 283.841C239.567 284.075 235.243 284.268 231.077 284.268Z" fill="#0F4C75"/>
<path d="M218.77 196.578C218.22 196.578 217.677 196.496 217.134 196.304C214.679 195.485 212.26 192.873 209.537 188.082C207.275 184.102 204.903 178.802 202.483 172.292C197.616 159.313 193.256 143.296 190.451 128.371C188.348 117.028 186.513 105.218 185.502 96.0613C184.958 91.2636 184.684 87.4068 184.608 84.561C184.526 80.1198 184.993 78.2849 186.478 77.3148C187.53 76.6136 188.85 76.6136 189.943 77.3148C191.188 78.1329 191.538 79.8101 190.72 81.0548C190.527 81.3294 190.334 81.5632 190.06 81.756C189.902 83.2403 189.867 87.214 191.071 97.2709C192.088 106.001 193.8 116.987 195.746 127.395C198.51 142.209 202.875 158.068 207.667 170.854C213.353 185.937 217.285 190.454 218.612 191.12C219.705 190.261 221.3 190.378 222.235 191.43C223.246 192.523 223.17 194.235 222.077 195.252C221.183 196.111 220.014 196.578 218.77 196.578Z" fill="#D5B4FF"/>
<path d="M264.105 196.576C262.86 196.576 261.692 196.109 260.757 195.209C259.67 194.198 259.588 192.48 260.605 191.393C261.575 190.335 263.135 190.218 264.263 191.077C265.589 190.417 269.563 185.894 275.208 170.811C280.041 158.025 284.365 142.207 287.129 127.352C289.075 116.95 290.793 105.958 291.804 97.228C292.973 87.171 292.932 83.1973 292.815 81.713C292.581 81.5202 292.348 81.2864 292.155 81.0118C291.337 79.7671 291.687 78.0899 292.932 77.2718C294.025 76.5706 295.345 76.5706 296.397 77.2718C297.882 78.2477 298.349 80.0768 298.267 84.5238C298.232 87.3638 297.917 91.2265 297.373 96.0183C296.362 105.175 294.568 116.985 292.424 128.328C289.624 143.259 285.259 159.276 280.391 172.255C277.972 178.724 275.6 184.024 273.338 188.039C270.615 192.83 268.196 195.442 265.741 196.261C265.198 196.494 264.654 196.576 264.105 196.576Z" fill="#D5B4FF"/>
<mask id="mask0_563_383" style="mask-type:luminance" maskUnits="userSpaceOnUse" x="208" y="278" width="26" height="118">
<path d="M208.029 278.162H233.461V395.971H208.029V278.162Z" fill="white"/>
</mask>
<g mask="url(#mask0_563_383)">
<path d="M211.132 395.971C209.888 395.971 208.76 395.077 208.485 393.792C208.21 392.307 209.145 390.905 210.624 390.63C211.758 390.396 213.078 390.28 214.481 390.128C217.169 389.853 221.651 389.385 222.744 387.942C222.586 387.083 221.61 385.02 220.757 383.15C217.21 375.624 210.589 361.634 211.173 338.563C211.524 323.983 217.21 309.643 221.809 298.107C224.573 291.171 226.945 285.205 226.869 282.09C226.828 280.606 227.997 279.361 229.517 279.32C231.001 279.279 232.245 280.448 232.286 281.973C232.403 286.18 229.949 292.34 226.828 300.135C222.393 311.279 216.9 325.117 216.584 338.715C216.082 360.506 222.078 373.251 225.66 380.848C227.687 385.178 228.932 387.784 227.728 390.163C225.625 394.411 219.781 394.995 215.065 395.504C213.78 395.621 212.611 395.778 211.676 395.93C211.483 395.971 211.29 395.971 211.132 395.971Z" fill="#D5B4FF"/>
</g>
<path d="M268.429 393.241C264.538 393.241 260.874 391.914 259.863 385.095C259.512 382.717 260.874 380.028 263.176 375.622C267.343 367.599 274.273 354.188 273.887 334.547C273.42 309.992 262.241 289.609 258.577 282.907C257.134 280.295 256.666 279.436 257.408 278.033C257.835 277.215 258.653 276.666 259.553 276.59C260.914 276.473 262.159 277.408 262.434 278.734C262.627 279.085 262.942 279.71 263.293 280.33C267.109 287.307 278.79 308.59 279.258 334.465C279.649 355.438 272.327 369.662 267.927 378.118C266.641 380.613 265.157 383.459 265.157 384.353C265.589 387.24 266.443 387.549 266.717 387.666C267.728 388.058 269.68 387.824 271.743 387.59C272.637 387.473 273.572 387.356 274.589 387.28C276.067 387.164 277.394 388.251 277.511 389.735C277.627 391.213 276.535 392.54 275.056 392.657C274.156 392.733 273.262 392.849 272.403 392.931C271.118 393.083 269.756 393.241 268.429 393.241Z" fill="#D5B4FF"/>
<path d="M232.321 208.539C232.205 208.539 232.053 208.539 231.936 208.498C231.077 208.382 230.335 207.838 229.949 207.096L220.675 189.401C220.091 188.314 220.324 186.988 221.259 186.17C222.159 185.352 223.521 185.235 224.532 185.895L240.777 196.46C241.437 196.887 241.905 197.629 241.981 198.447C242.063 199.265 241.788 200.043 241.245 200.627L234.232 207.762C233.765 208.265 233.064 208.539 232.321 208.539ZM230.259 196.028L233.023 201.293L235.091 199.184L230.259 196.028Z" fill="#0F4C75"/>
<path d="M250.437 208.539C249.736 208.539 249.034 208.265 248.526 207.721L241.514 200.592C240.929 200.002 240.66 199.224 240.777 198.406C240.853 197.588 241.321 196.887 241.981 196.419L258.226 185.854C259.237 185.194 260.605 185.311 261.499 186.129C262.393 186.947 262.627 188.314 262.083 189.366L252.809 207.061C252.424 207.838 251.682 208.346 250.822 208.463C250.706 208.539 250.554 208.539 250.437 208.539ZM247.673 199.183L249.736 201.293L252.5 196.028L247.673 199.183Z" fill="#0F4C75"/>
<path fill-rule="evenodd" clip-rule="evenodd" d="M241.788 198.447L235.091 208.93L238.358 210.917L235.985 253.553L244.05 266.999L250.863 252.384L245.294 212.945L248.099 207.411L241.788 198.447Z" fill="#FF0000"/>
<path d="M71.6439 136.475C69.4642 136.592 67.2436 136.551 65.064 136.825C65.6074 136.784 66.1509 136.749 66.7002 136.668C23.7317 139.981 -4.54581 90.1753 9.59586 52.2499C15.0071 34.9468 27.121 19.3968 43.6761 11.5254C47.1823 9.84829 50.8814 8.63865 54.7031 7.77963C60.9325 5.3662 67.5943 4.03969 74.256 3.68907C77.7622 3.57219 81.2684 3.96372 84.6169 4.97467C89.6015 6.84465 103.042 9.88335 108.418 13.6291C118.738 19.6657 126.06 29.4889 131.243 40.0893C136.304 50.4209 138.373 62.1141 136.62 73.5326C134.633 90.1344 126.878 106.467 113.21 116.559C99.6526 126.616 89.4437 135.23 71.6439 136.475Z" fill="#E7BC1F"/>
<path d="M65.8002 136.983C63.6205 137.1 61.3999 137.059 59.2202 137.333C59.7636 137.292 60.3071 137.257 60.8564 137.176C29.7739 139.595 6.12462 114.023 1.0231 84.9507C-1.34943 73.0998 0.596515 60.7463 4.87992 49.5206C11.8923 29.9969 28.1728 12.7698 48.8594 8.28767C56.4912 5.44181 64.7483 3.76468 72.9294 4.31398C77.6453 4.58279 81.9287 6.80923 86.3699 8.05393C101.055 10.742 113.829 20.2555 121.268 33.1116C127.387 42.7419 131.436 53.8858 131.436 65.3452C131.243 86.0786 122.361 107.402 104.596 119.013C92.1726 128.527 82.0865 135.814 65.8002 136.983Z" fill="#FFDC00"/>
<path d="M108.886 97.8881C107.559 96.6434 108.769 95.0072 109.353 93.7215C110.247 91.8457 111.106 89.9407 112 88.0707C113.753 84.3658 115.273 80.5441 116.325 76.5295C117.569 71.7377 118.113 66.7472 117.996 61.7976C118.194 59.9685 117.102 57.3155 118.972 56.1059C124.389 51.0043 123.956 66.3615 123.647 69.0496C122.712 78.2066 118.896 86.7793 114.221 94.6156C114.256 94.5397 114.297 94.4988 114.338 94.4228C114.18 94.6565 114.022 94.9253 113.829 95.1591C113.829 95.1591 113.829 95.1591 113.829 95.124C112.742 96.6843 111.065 99.7581 108.886 97.8881Z" fill="white"/>
<path d="M116.243 46.8757C114.723 46.4433 114.297 44.6142 113.362 43.5215C112.158 43.4455 111.533 42.1599 110.756 41.3768C109.856 40.4827 109.002 39.1562 109.622 37.8706C109.429 37.6778 109.312 37.4791 109.195 37.2454C109.195 37.2454 109.195 37.2454 109.195 37.2863C108.219 34.756 111.492 33.5463 113.093 35.3403C115.39 37.4031 116.792 40.2899 118.195 43.0189C119.322 44.6902 118.58 47.3841 116.243 46.8757Z" fill="white"/>
<mask id="mask1_563_383" style="mask-type:luminance" maskUnits="userSpaceOnUse" x="347" y="2" width="134" height="136">
<path d="M347.155 2.90127H480.145V137.539H347.155V2.90127Z" fill="white"/>
</mask>
<g mask="url(#mask1_563_383)">
<path d="M413.411 136.475C411.231 136.591 409.01 136.551 406.831 136.825C407.374 136.784 407.918 136.749 408.467 136.667C365.463 139.946 337.18 90.1343 351.363 52.2148C356.774 34.9058 368.888 19.3558 385.443 11.4844C388.949 9.80726 392.648 8.59762 396.47 7.74445C402.699 5.32517 409.361 3.99866 416.023 3.64804C419.529 3.53116 423.035 3.92269 426.384 4.93364C431.368 6.80946 444.809 9.84817 450.185 13.5881C460.505 19.6305 467.827 29.4537 473.01 40.0541C478.071 50.3798 480.14 62.073 478.386 73.4916C476.4 90.0934 468.645 106.426 454.971 116.518C441.419 126.616 431.211 135.23 413.411 136.475Z" fill="#E7BC1F"/>
</g>
<path d="M407.567 136.983C405.387 137.1 403.167 137.059 400.987 137.333C401.531 137.292 402.074 137.257 402.623 137.176C371.541 139.595 347.892 114.023 342.79 84.9507C340.418 73.0998 342.364 60.7463 346.647 49.5206C353.659 29.9969 369.94 12.7698 390.626 8.28767C398.258 5.44181 406.515 3.76468 414.696 4.31398C419.412 4.58279 423.696 6.80923 428.137 8.05393C442.822 10.742 455.596 20.2555 463.035 33.1116C469.154 42.7419 473.203 53.8858 473.203 65.3452C473.01 86.0786 464.128 107.402 446.363 119.013C433.899 128.527 423.853 135.814 407.567 136.983Z" fill="#FFDC00"/>
<path d="M440.911 104.009C439.9 102.53 441.379 101.169 442.197 99.9943C443.442 98.323 444.692 96.6868 445.937 95.0096C448.391 91.7313 450.688 88.307 452.523 84.6021C454.743 80.1609 456.298 75.4041 457.157 70.4955C457.741 68.7365 457.233 65.9316 459.26 65.1134C465.607 61.2566 462.024 76.1813 461.206 78.7175C458.442 87.483 452.908 95.1265 446.755 101.788C446.796 101.753 446.872 101.671 446.913 101.636C446.714 101.829 446.48 102.063 446.287 102.256C444.926 103.623 442.664 106.311 440.911 104.009Z" fill="white"/>
<path d="M458.594 55.5656C457.192 54.8235 457.157 52.9535 456.455 51.7088C455.287 51.3933 454.936 49.9908 454.352 49.0967C453.65 48.0039 453.107 46.5605 454.001 45.4327C453.884 45.2399 453.767 45.0061 453.726 44.7315C453.726 44.7315 453.726 44.7315 453.726 44.7724C453.3 42.1194 456.724 41.5759 457.934 43.6796C459.763 46.1749 460.546 49.2895 461.364 52.2523C462.065 54.0872 460.78 56.5415 458.594 55.5656Z" fill="white"/>
<path d="M282.413 325.383C284.131 327.844 284.131 331.116 282.378 333.57C282.028 334.079 282.296 334.856 282.805 335.166C283.389 335.522 284.05 335.288 284.4 334.739C286.545 331.659 286.586 327.259 284.441 324.18C284.091 323.671 283.43 323.437 282.846 323.747C282.337 324.063 282.063 324.84 282.413 325.383Z" fill="#9DDCF8"/>
<path d="M287.012 324.449C288.724 327.219 288.415 331.041 286.235 333.495C285.803 333.963 285.768 334.699 286.235 335.131C286.662 335.558 287.48 335.599 287.871 335.131C290.752 331.935 291.255 326.944 288.999 323.245C288.257 321.96 286.235 323.164 287.012 324.449Z" fill="#9DDCF8"/>
<path d="M205.68 339.339C205.096 343.044 205.797 346.86 207.784 350.056C208.561 351.342 210.589 350.173 209.806 348.888C208.175 346.241 207.474 343.044 207.942 339.964C208.058 339.339 207.784 338.714 207.123 338.521C206.539 338.363 205.756 338.714 205.68 339.339Z" fill="#9DDCF8"/>
<path d="M202.408 339.888C201.747 343.16 202.215 346.549 203.851 349.471C204.161 350.021 204.903 350.213 205.446 349.904C205.99 349.588 206.189 348.852 205.873 348.303C204.587 345.924 204.161 343.119 204.704 340.507C204.821 339.888 204.511 339.262 203.886 339.064C203.267 338.912 202.525 339.262 202.408 339.888Z" fill="#9DDCF8"/>
<path d="M365.931 13.4305C367.018 12.3027 368.228 11.4437 369.63 10.7015C370.916 10.0821 372.476 9.5737 373.838 9.41592C374.457 9.33995 375.006 8.94842 375.006 8.24718C375.006 7.66282 374.457 7.00248 373.838 7.07845C370.214 7.51088 366.825 9.1062 364.254 11.7592C363.243 12.8461 364.879 14.5233 365.931 13.4305Z" fill="#9DDCF8"/>
<path d="M363.746 9.88445C368.502 5.95166 374.264 3.33954 380.342 2.28768C380.967 2.17081 381.317 1.42867 381.16 0.844299C380.967 0.183965 380.342 -0.0906882 379.716 0.0261851C373.212 1.11895 367.135 3.99988 362.074 8.21316C361.607 8.59885 361.642 9.45786 362.074 9.84939C362.577 10.3519 363.243 10.276 363.746 9.88445Z" fill="#9DDCF8"/>
<path d="M8.97045 124.588C10.8813 130.122 14.5044 134.879 19.2904 138.227C20.6169 139.162 22.0194 139.945 23.4627 140.606C24.0471 140.88 24.7074 140.763 25.0581 140.179C25.3327 139.671 25.2158 138.853 24.6315 138.578C19.7579 136.398 15.6731 132.652 13.0201 128.018C12.2838 126.733 11.6994 125.406 11.191 124.004C10.9982 123.419 10.3729 123.028 9.74765 123.186C9.20419 123.338 8.77761 124.004 8.97045 124.588Z" fill="#9DDCF8"/>
<path d="M12.6698 122.562C16.7253 128.02 22.1774 132.187 28.4886 134.764C29.073 134.998 29.7742 134.489 29.9261 133.946C30.1248 133.28 29.6924 132.736 29.108 132.502C23.4221 130.2 18.3557 126.302 14.6976 121.393C14.306 120.885 13.6866 120.616 13.1022 120.967C12.5938 121.236 12.2841 122.054 12.6698 122.562Z" fill="#9DDCF8"/>
</svg>
