<svg width="1048" height="149" viewBox="0 0 1048 149" fill="none" xmlns="http://www.w3.org/2000/svg">
<path d="M536.479 0C537.805 0 538.873 0.397186 539.679 1.18596C540.485 1.96355 540.887 2.90337 540.887 4.00543C540.887 6.3326 539.567 8.14511 536.926 9.44296C534.599 10.5506 531.41 11.0988 527.37 11.0988C526.682 11.0988 525.58 11.0653 524.058 10.9869L515.643 42.4709C515.33 43.6233 515.173 44.5016 515.173 45.1114C515.173 46.096 515.52 46.8064 516.225 47.2372C516.941 47.6567 518.178 47.9029 519.94 47.9756L519.694 49.1168C517.288 48.9993 513.763 48.9378 509.108 48.9378C504.571 48.9378 501.214 48.9993 499.037 49.1168L499.261 47.9756C500.9 47.9029 502.17 47.7015 503.066 47.3714C503.961 47.047 504.66 46.5099 505.169 45.7603C505.69 45.0163 506.143 43.9198 506.535 42.4709L515.173 10.1366C512.309 9.86812 510.015 9.73386 508.303 9.73386C505.136 9.73386 502.982 10.0639 501.835 10.7184C502.831 11.0205 503.653 11.5799 504.297 12.3967C504.951 13.219 505.281 14.2036 505.281 15.3504C505.281 16.6818 504.856 17.8118 504.006 18.7517C503.166 19.6915 502.103 20.1614 500.805 20.1614C499.552 20.1614 498.551 19.7362 497.806 18.8859C497.057 18.0244 496.687 16.9391 496.687 15.6413C496.687 14.5672 496.978 13.5379 497.56 12.5533C498.153 11.5576 499.104 10.7296 500.402 10.0695C502.282 9.16325 504.839 8.70453 508.079 8.70453C510.596 8.70453 514.149 8.93948 518.732 9.3982C522.922 9.77302 525.971 9.95762 527.885 9.95762C530.436 9.95762 532.456 9.71148 533.95 9.21919C533.379 8.68215 532.904 8.02763 532.517 7.25004C532.143 6.46127 531.958 5.61095 531.958 4.6991C531.958 3.32853 532.366 2.2041 533.189 1.32022C534.006 0.44194 535.102 0 536.479 0Z" fill="white"/>
<path d="M560.807 39.8537L559.375 44.0158C557.999 47.9541 555.442 49.9232 551.699 49.9232C548.219 49.9232 546.484 48.3792 546.484 45.2913C546.484 43.9207 546.775 42.4271 547.357 40.8159L552.437 25.3536C552.796 24.2516 552.975 23.4181 552.975 22.8475C552.975 22.0139 552.605 21.5944 551.878 21.5944C550.804 21.5944 549.528 22.5901 548.051 24.5705C546.585 26.5564 545.097 29.2248 543.575 32.5813C542.053 35.9378 540.655 39.602 539.39 43.5683L538.025 48.3792C537.98 48.4128 537.958 48.4632 537.958 48.5359V48.4911L537.801 49.1177H529.722L541.046 10.9431C541.236 10.2606 541.337 9.72354 541.337 9.33195C541.337 8.57114 541.035 8.02291 540.442 7.67607C539.86 7.33483 538.859 7.16141 537.443 7.16141L537.801 5.95307C540.47 5.9251 542.865 5.72371 544.985 5.3489C547.1 4.9629 549.153 4.38111 551.139 3.60352L543.351 30.2318C545.287 25.9243 547.201 22.9314 549.08 21.2587C550.972 19.5749 553.131 18.7302 555.548 18.7302C557.339 18.7302 558.648 19.1441 559.487 19.9609C560.321 20.7832 560.74 21.8965 560.74 23.295C560.74 24.5201 560.477 25.8795 559.957 27.3675L554.34 44.2619C554.116 44.95 554.004 45.5038 554.004 45.9178C554.004 46.7122 554.384 47.1038 555.145 47.1038C556.399 47.1038 557.574 45.5989 558.681 42.5837L559.711 39.8537H560.807Z" fill="white"/>
<path d="M590.173 23.2467C590.173 26.413 588.394 29.1765 584.846 31.5484C581.294 33.9091 577.176 35.7328 572.493 37.0307C572.252 38.3285 572.135 39.6264 572.135 40.9242C572.135 42.9549 572.504 44.387 573.254 45.2206C573.998 46.0597 575.094 46.4736 576.544 46.4736C577.735 46.4736 579.072 46.11 580.549 45.3772C582.038 44.6332 583.492 43.4416 584.914 41.7969L585.831 42.2445C584.455 44.3814 582.614 46.1939 580.303 47.682C577.987 49.17 575.402 49.9197 572.538 49.9197C569.908 49.9197 567.754 49.2148 566.07 47.8162C564.397 46.4009 563.563 44.4094 563.563 41.8417C563.563 38.4404 564.47 34.9273 566.294 31.3023C568.129 27.6772 570.624 24.6788 573.791 22.3068C576.969 19.9237 580.443 18.7266 584.22 18.7266C585.977 18.7266 587.409 19.1237 588.517 19.9125C589.619 20.6901 590.173 21.8034 590.173 23.2467ZM582.966 19.8006C581.859 19.8006 580.6 20.5838 579.184 22.1502C577.763 23.7166 576.465 25.7528 575.29 28.259C574.11 30.754 573.231 33.3162 572.649 35.9566C575.363 34.765 577.467 33.484 578.961 32.1078C580.482 30.7372 581.68 29.1653 582.564 27.3863C583.442 25.613 583.884 23.7166 583.884 21.7027C583.884 20.9754 583.8 20.4719 583.638 20.2034C583.487 19.9349 583.263 19.8006 582.966 19.8006Z" fill="white"/>
<path d="M24.9535 121.111C31.0408 121.576 35.5055 122.98 38.3589 125.318C41.2068 127.662 42.6335 130.42 42.6335 133.598C42.6335 137.939 40.9214 141.295 37.5085 143.667C34.09 146.028 29.3455 147.203 23.275 147.203C21.9154 147.203 20.7684 147.18 19.8285 147.136C16.7513 147.046 13.7412 147.001 10.7871 147.001C5.96421 147.001 2.37226 147.068 0 147.203V145.793C1.53302 145.703 2.66319 145.519 3.37935 145.234C4.10669 144.954 4.59904 144.417 4.85641 143.622C5.12497 142.834 5.25925 141.553 5.25925 139.774V104.978C5.25925 103.205 5.12497 101.923 4.85641 101.129C4.59904 100.34 4.10669 99.8033 3.37935 99.518C2.66319 99.2383 1.53302 99.0481 0 98.9586V97.5488C2.37226 97.6999 5.91945 97.7726 10.6528 97.7726L18.4409 97.6831C19.3641 97.6383 20.4383 97.616 21.6636 97.616C27.2698 97.616 31.5611 98.6229 34.532 100.637C37.4973 102.651 38.9856 105.314 38.9856 108.625C38.9856 111.344 37.805 113.873 35.4496 116.211C33.0885 118.538 29.5917 120.127 24.9535 120.977V121.111ZM20.7461 98.9586C19.4928 98.9586 18.564 99.1264 17.971 99.4508C17.3891 99.7809 16.9751 100.368 16.7401 101.219C16.5163 102.058 16.4044 103.311 16.4044 104.978V120.843H19.4256C22.4525 120.843 24.573 119.808 25.7815 117.733C27.0012 115.646 27.6166 112.871 27.6166 109.408C27.6166 105.907 27.0627 103.288 25.9605 101.554C24.8695 99.8257 23.1295 98.9586 20.7461 98.9586ZM21.2384 145.592C27.7397 145.592 30.996 141.497 30.996 133.307C30.996 129.626 30.056 126.829 28.1761 124.916C26.3074 122.991 23.3701 122.029 19.3585 122.029H16.4044V139.774C16.4044 141.463 16.5163 142.699 16.7401 143.488C16.9751 144.283 17.4338 144.831 18.1052 145.144C18.7878 145.446 19.8341 145.592 21.2384 145.592Z" fill="white"/>
<path d="M91.7993 98.9586C90.2439 99.1823 89.1025 99.5795 88.3752 100.145C87.659 100.715 87.1723 101.61 86.9205 102.83C86.6631 104.038 86.54 105.828 86.54 108.2V126.795C86.54 133.48 85.5777 138.431 83.653 141.653C82.3998 143.712 80.5758 145.317 78.1924 146.464C75.8033 147.611 72.8772 148.187 69.4195 148.187C64.0036 148.187 59.7962 147.018 56.7973 144.674C54.6488 142.946 53.1998 140.758 52.4556 138.118C51.7059 135.477 51.3366 131.774 51.3366 126.997V104.978C51.3366 103.205 51.2024 101.923 50.9338 101.129C50.6764 100.34 50.1841 99.8033 49.4567 99.518C48.7406 99.2383 47.6104 99.0481 46.0774 98.9586V97.5488C48.4496 97.6999 52.0864 97.7726 56.9987 97.7726C61.8607 97.7726 65.5814 97.6999 68.1662 97.5488V98.9586C66.4766 99.0481 65.2457 99.2383 64.4736 99.518C63.7127 99.8033 63.1867 100.34 62.907 101.129C62.6216 101.923 62.4818 103.205 62.4818 104.978V131.427C62.4818 136.339 63.1867 139.947 64.6078 142.257C66.0402 144.573 68.5523 145.726 72.1498 145.726C76.8328 145.726 80.1282 144.154 82.0417 141.004C83.9664 137.844 84.9287 133.363 84.9287 127.556V109.05C84.9287 106.337 84.7608 104.329 84.4363 103.031C84.1062 101.722 83.474 100.771 82.534 100.189C81.6053 99.5963 80.1394 99.1823 78.1252 98.9586V97.5488C79.8988 97.6999 82.4221 97.7726 85.6896 97.7726C88.3136 97.7726 90.3502 97.6999 91.7993 97.5488V98.9586Z" fill="white"/>
<path d="M117.54 98.9586C115.85 99.0481 114.619 99.2383 113.847 99.518C113.086 99.8033 112.56 100.34 112.28 101.129C111.995 101.923 111.855 103.205 111.855 104.978V140.602C111.855 142.112 111.967 143.208 112.191 143.891C112.426 144.562 112.84 145.021 113.422 145.256C114.015 145.48 114.966 145.592 116.264 145.592H119.711C122.888 145.592 125.63 144.171 127.946 141.318C130.257 138.47 131.762 134.683 132.467 129.95H134.078C133.944 131.55 133.877 133.609 133.877 136.126C133.877 140.618 134.039 144.31 134.369 147.203C131.191 147.068 125.831 147.001 118.301 147.001C108.107 147.001 100.492 147.068 95.4509 147.203V145.793C96.9839 145.703 98.1141 145.519 98.8302 145.234C99.5576 144.954 100.05 144.417 100.307 143.622C100.576 142.834 100.71 141.553 100.71 139.774V104.978C100.71 103.205 100.576 101.923 100.307 101.129C100.05 100.34 99.5576 99.8033 98.8302 99.518C98.1141 99.2383 96.9839 99.0481 95.4509 98.9586V97.5488C97.8231 97.6999 101.516 97.7726 106.529 97.7726C111.285 97.7726 114.955 97.6999 117.54 97.5488V98.9586Z" fill="white"/>
<path d="M160.391 98.9586C158.702 99.0481 157.471 99.2383 156.699 99.518C155.938 99.8033 155.412 100.34 155.132 101.129C154.847 101.923 154.707 103.205 154.707 104.978V140.602C154.707 142.112 154.819 143.208 155.043 143.891C155.278 144.562 155.692 145.021 156.274 145.256C156.867 145.48 157.818 145.592 159.116 145.592H162.562C165.74 145.592 168.482 144.171 170.798 141.318C173.109 138.47 174.614 134.683 175.319 129.95H176.93C176.796 131.55 176.729 133.609 176.729 136.126C176.729 140.618 176.891 144.31 177.221 147.203C174.043 147.068 168.683 147.001 161.152 147.001C150.958 147.001 143.344 147.068 138.303 147.203V145.793C139.836 145.703 140.966 145.519 141.682 145.234C142.409 144.954 142.902 144.417 143.159 143.622C143.428 142.834 143.562 141.553 143.562 139.774V104.978C143.562 103.205 143.428 101.923 143.159 101.129C142.902 100.34 142.409 99.8033 141.682 99.518C140.966 99.2383 139.836 99.0481 138.303 98.9586V97.5488C140.675 97.6999 144.368 97.7726 149.381 97.7726C154.136 97.7726 157.807 97.6999 160.391 97.5488V98.9586Z" fill="white"/>
<path d="M202.817 98.9586C201.217 99.0481 200.07 99.2383 199.371 99.518C198.666 99.8033 198.19 100.34 197.939 101.129C197.681 101.923 197.558 103.205 197.558 104.978V139.774C197.558 141.553 197.681 142.834 197.939 143.622C198.19 144.417 198.666 144.954 199.371 145.234C200.07 145.519 201.217 145.703 202.817 145.793V147.203C200.294 147.068 196.764 147.001 192.232 147.001C187.219 147.001 183.526 147.068 181.154 147.203V145.793C182.687 145.703 183.817 145.519 184.533 145.234C185.26 144.954 185.753 144.417 186.01 143.622C186.279 142.834 186.413 141.553 186.413 139.774V104.978C186.413 103.205 186.279 101.923 186.01 101.129C185.753 100.34 185.26 99.8033 184.533 99.518C183.817 99.2383 182.687 99.0481 181.154 98.9586V97.5488C183.526 97.6999 187.219 97.7726 192.232 97.7726C196.764 97.7726 200.294 97.6999 202.817 97.5488V98.9586Z" fill="white"/>
<path d="M232.97 96.5645C237.921 96.5645 242.257 97.5714 245.972 99.5853C249.699 101.599 252.597 104.519 254.656 108.335C256.715 112.139 257.744 116.681 257.744 121.962C257.744 127.097 256.681 131.651 254.566 135.634C252.462 139.606 249.531 142.694 245.771 144.898C242.011 147.091 237.72 148.187 232.903 148.187C227.945 148.187 223.615 147.181 219.9 145.167C216.185 143.153 213.298 140.244 211.239 136.44C209.18 132.636 208.151 128.088 208.151 122.79C208.151 117.66 209.202 113.112 211.306 109.14C213.41 105.157 216.342 102.069 220.101 99.8762C223.861 97.6721 228.147 96.5645 232.97 96.5645ZM232.701 97.8399C230.116 97.8399 227.845 98.886 225.875 100.973C223.917 103.048 222.412 105.957 221.355 109.7C220.308 113.431 219.788 117.705 219.788 122.521C219.788 127.388 220.381 131.668 221.578 135.366C222.77 139.052 224.381 141.9 226.412 143.914C228.438 145.916 230.698 146.912 233.193 146.912C235.756 146.912 238.016 145.877 239.975 143.802C241.944 141.732 243.449 138.823 244.495 135.075C245.553 131.332 246.084 127.053 246.084 122.231C246.084 117.369 245.486 113.095 244.294 109.409C243.097 105.711 241.485 102.863 239.46 100.861C237.429 98.8469 235.174 97.8399 232.701 97.8399Z" fill="white"/>
<path d="M309.354 98.9586C307.798 99.1823 306.657 99.5795 305.93 100.145C305.214 100.715 304.727 101.61 304.475 102.83C304.218 104.038 304.095 105.828 304.095 108.2V147.337L302.416 147.27L300.514 147.337L270.077 108.782V135.701C270.077 138.465 270.212 140.484 270.48 141.765C270.76 143.052 271.375 143.992 272.315 144.585C273.255 145.166 274.777 145.569 276.881 145.793V147.203C275.057 147.068 272.528 147.001 269.294 147.001C266.726 147.001 264.695 147.068 263.207 147.203V145.793C264.74 145.569 265.87 145.178 266.586 144.607C267.313 144.042 267.806 143.153 268.063 141.944C268.332 140.725 268.466 138.923 268.466 136.551V104.978C268.466 103.205 268.332 101.923 268.063 101.129C267.806 100.34 267.313 99.8033 266.586 99.518C265.87 99.2383 264.74 99.0481 263.207 98.9586V97.5488C264.695 97.6999 266.726 97.7726 269.294 97.7726C271.633 97.7726 273.647 97.6999 275.337 97.5488L302.483 131.002V109.05C302.483 106.293 302.338 104.273 302.058 102.986C301.773 101.705 301.163 100.771 300.223 100.189C299.294 99.5963 297.783 99.1823 295.68 98.9586V97.5488C297.498 97.6999 300.021 97.7726 303.244 97.7726C305.868 97.7726 307.905 97.6999 309.354 97.5488V98.9586Z" fill="white"/>
<path d="M377.651 144.115C376.398 145.564 375.039 146.599 373.578 147.225C372.129 147.863 370.384 148.187 368.341 148.187C365.622 148.187 363.485 147.611 361.918 146.464C360.352 145.317 359.328 143.365 358.852 140.602L357.599 133.598C356.984 130.185 356.245 127.668 355.384 126.057C354.516 124.446 353.084 123.64 351.087 123.64H346.521V139.774C346.521 141.553 346.644 142.834 346.902 143.622C347.153 144.417 347.629 144.954 348.334 145.234C349.033 145.519 350.18 145.703 351.78 145.793V147.203C349.257 147.068 345.727 147.001 341.195 147.001C336.182 147.001 332.489 147.068 330.117 147.203V145.793C331.65 145.703 332.78 145.519 333.496 145.234C334.224 144.954 334.716 144.417 334.973 143.622C335.242 142.834 335.376 141.553 335.376 139.774V104.978C335.376 103.205 335.242 101.923 334.973 101.129C334.716 100.34 334.224 99.8033 333.496 99.518C332.78 99.2383 331.65 99.0481 330.117 98.9586V97.5488C332.489 97.6999 336.036 97.7726 340.77 97.7726L348.558 97.6831C349.481 97.6383 350.555 97.616 351.78 97.616C358.226 97.616 363.071 98.6677 366.327 100.771C369.578 102.874 371.206 105.895 371.206 109.834C371.206 113.145 369.986 116.071 367.558 118.605C365.124 121.128 361.102 122.711 355.495 123.349C359.703 123.741 362.836 124.658 364.895 126.101C366.954 127.55 368.286 129.721 368.901 132.613L370.512 139.841C370.882 141.709 371.318 143.018 371.81 143.779C372.303 144.529 372.985 144.898 373.869 144.898C374.434 144.842 374.91 144.696 375.302 144.473C375.704 144.238 376.163 143.835 376.689 143.264L377.651 144.115ZM350.863 98.9586C349.61 98.9586 348.681 99.1264 348.088 99.4508C347.506 99.7809 347.092 100.368 346.857 101.219C346.633 102.058 346.521 103.311 346.521 104.978V122.23H349.542C353.375 122.23 355.999 121.218 357.42 119.187C358.852 117.162 359.569 114.298 359.569 110.594C359.569 106.762 358.886 103.87 357.532 101.912C356.172 99.9431 353.951 98.9586 350.863 98.9586Z" fill="white"/>
<path d="M417.075 136.551C417.075 140.848 417.237 144.4 417.567 147.203C414.389 147.068 409.029 147.001 401.499 147.001C391.305 147.001 383.69 147.068 378.649 147.203V145.793C380.182 145.703 381.312 145.519 382.028 145.234C382.756 144.954 383.248 144.417 383.505 143.622C383.774 142.834 383.908 141.553 383.908 139.774V104.978C383.908 103.205 383.774 101.923 383.505 101.129C383.248 100.34 382.756 99.8033 382.028 99.518C381.312 99.2383 380.182 99.0481 378.649 98.9586V97.5488C383.69 97.6999 391.305 97.7726 401.499 97.7726C408.375 97.7726 413.259 97.6999 416.157 97.5488C415.827 101.431 415.665 104.888 415.665 107.932C415.665 109.99 415.738 111.579 415.889 112.698H414.277C413.573 107.702 412.308 104.195 410.473 102.181C408.649 100.167 406.086 99.1599 402.774 99.1599H399.887C398.438 99.1599 397.386 99.283 396.732 99.518C396.072 99.7585 395.624 100.212 395.389 100.883C395.165 101.554 395.053 102.645 395.053 104.15V121.537H397.291C399.764 121.537 401.644 120.63 402.931 118.807C404.229 116.989 405.13 114.812 405.639 112.273H407.25C407.116 114.242 407.049 116.446 407.049 118.874V122.23C407.049 124.619 407.189 127.936 407.474 132.188H405.863C404.878 126.029 402.019 122.946 397.291 122.946H395.053V140.602C395.053 142.112 395.165 143.208 395.389 143.891C395.624 144.562 396.072 145.021 396.732 145.256C397.386 145.48 398.438 145.592 399.887 145.592H403.334C406.646 145.592 409.315 144.462 411.346 142.19C413.388 139.925 414.826 136.076 415.665 130.644H417.276C417.142 132.199 417.075 134.168 417.075 136.551Z" fill="white"/>
<path d="M460.622 97.5488C460.292 101.532 460.129 105.084 460.129 108.2C460.129 110.41 460.202 112.194 460.353 113.548H458.742C457.802 108.267 456.392 104.553 454.512 102.405C452.643 100.245 450.036 99.1599 446.679 99.1599H444.352C442.903 99.1599 441.851 99.283 441.196 99.518C440.536 99.7585 440.088 100.212 439.853 100.883C439.63 101.554 439.518 102.645 439.518 104.15V121.805H441.979C444.452 121.805 446.332 120.899 447.619 119.075C448.9 117.257 449.801 115.087 450.327 112.564H451.938C451.787 114.522 451.715 116.714 451.715 119.142V122.521C451.715 124.91 451.855 128.227 452.14 132.479H450.529C449.544 126.303 446.69 123.215 441.979 123.215H439.518V139.348C439.518 141.217 439.708 142.582 440.1 143.443C440.502 144.31 441.202 144.887 442.203 145.166C443.216 145.452 444.822 145.614 447.015 145.659V147.203C441.269 147.068 436.994 147.001 434.191 147.001C431.847 147.001 428.898 147.046 425.351 147.136L423.113 147.203V145.793C424.646 145.703 425.776 145.519 426.493 145.234C427.22 144.954 427.712 144.417 427.97 143.622C428.238 142.834 428.373 141.553 428.373 139.774V104.978C428.373 103.205 428.238 101.923 427.97 101.129C427.712 100.34 427.22 99.8033 426.493 99.518C425.776 99.2383 424.646 99.0481 423.113 98.9586V97.5488C428.154 97.6999 435.769 97.7726 445.963 97.7726C452.839 97.7726 457.724 97.6999 460.622 97.5488Z" fill="white"/>
<path d="M486.296 98.9586C484.696 99.0481 483.549 99.2383 482.849 99.518C482.144 99.8033 481.669 100.34 481.417 101.129C481.16 101.923 481.037 103.205 481.037 104.978V139.774C481.037 141.553 481.16 142.834 481.417 143.622C481.669 144.417 482.144 144.954 482.849 145.234C483.549 145.519 484.696 145.703 486.296 145.793V147.203C483.773 147.068 480.242 147.001 475.71 147.001C470.697 147.001 467.004 147.068 464.632 147.203V145.793C466.165 145.703 467.295 145.519 468.012 145.234C468.739 144.954 469.231 144.417 469.489 143.622C469.757 142.834 469.891 141.553 469.891 139.774V104.978C469.891 103.205 469.757 101.923 469.489 101.129C469.231 100.34 468.739 99.8033 468.012 99.518C467.295 99.2383 466.165 99.0481 464.632 98.9586V97.5488C467.004 97.6999 470.697 97.7726 475.71 97.7726C480.242 97.7726 483.773 97.6999 486.296 97.5488V98.9586Z" fill="white"/>
<path d="M537.216 98.9586C535.661 99.1823 534.52 99.5795 533.792 100.145C533.076 100.715 532.589 101.61 532.338 102.83C532.08 104.038 531.957 105.828 531.957 108.2V147.337L530.279 147.27L528.376 147.337L497.94 108.782V135.701C497.94 138.465 498.074 140.484 498.343 141.765C498.623 143.052 499.238 143.992 500.178 144.585C501.118 145.166 502.64 145.569 504.743 145.793V147.203C502.919 147.068 500.391 147.001 497.157 147.001C494.589 147.001 492.558 147.068 491.069 147.203V145.793C492.602 145.569 493.733 145.178 494.449 144.607C495.176 144.042 495.668 143.153 495.926 141.944C496.194 140.725 496.329 138.923 496.329 136.551V104.978C496.329 103.205 496.194 101.923 495.926 101.129C495.668 100.34 495.176 99.8033 494.449 99.518C493.733 99.2383 492.602 99.0481 491.069 98.9586V97.5488C492.558 97.6999 494.589 97.7726 497.157 97.7726C499.495 97.7726 501.51 97.6999 503.199 97.5488L530.346 131.002V109.05C530.346 106.293 530.2 104.273 529.921 102.986C529.635 101.705 529.025 100.771 528.086 100.189C527.157 99.5963 525.646 99.1823 523.542 98.9586V97.5488C525.361 97.6999 527.884 97.7726 531.107 97.7726C533.731 97.7726 535.767 97.6999 537.216 97.5488V98.9586Z" fill="white"/>
<path d="M580.064 136.551C580.064 140.848 580.227 144.4 580.557 147.203C577.379 147.068 572.019 147.001 564.488 147.001C554.294 147.001 546.679 147.068 541.638 147.203V145.793C543.171 145.703 544.301 145.519 545.018 145.234C545.745 144.954 546.237 144.417 546.495 143.622C546.763 142.834 546.898 141.553 546.898 139.774V104.978C546.898 103.205 546.763 101.923 546.495 101.129C546.237 100.34 545.745 99.8033 545.018 99.518C544.301 99.2383 543.171 99.0481 541.638 98.9586V97.5488C546.679 97.6999 554.294 97.7726 564.488 97.7726C571.364 97.7726 576.249 97.6999 579.147 97.5488C578.817 101.431 578.654 104.888 578.654 107.932C578.654 109.99 578.727 111.579 578.878 112.698H577.267C576.562 107.702 575.297 104.195 573.462 102.181C571.638 100.167 569.076 99.1599 565.764 99.1599H562.877C561.428 99.1599 560.376 99.283 559.721 99.518C559.061 99.7585 558.613 100.212 558.378 100.883C558.155 101.554 558.043 102.645 558.043 104.15V121.537H560.281C562.754 121.537 564.634 120.63 565.92 118.807C567.218 116.989 568.119 114.812 568.628 112.273H570.24C570.105 114.242 570.038 116.446 570.038 118.874V122.23C570.038 124.619 570.178 127.936 570.463 132.188H568.852C567.867 126.029 565.008 122.946 560.281 122.946H558.043V140.602C558.043 142.112 558.155 143.208 558.378 143.891C558.613 144.562 559.061 145.021 559.721 145.256C560.376 145.48 561.428 145.592 562.877 145.592H566.323C569.635 145.592 572.304 144.462 574.335 142.19C576.377 139.925 577.815 136.076 578.654 130.644H580.266C580.132 132.199 580.064 134.168 580.064 136.551Z" fill="white"/>
<path d="M633.637 144.115C632.384 145.564 631.025 146.599 629.564 147.225C628.115 147.863 626.37 148.187 624.327 148.187C621.608 148.187 619.471 147.611 617.905 146.464C616.338 145.317 615.314 143.365 614.838 140.602L613.585 133.598C612.97 130.185 612.231 127.668 611.37 126.057C610.502 124.446 609.07 123.64 607.073 123.64H602.507V139.774C602.507 141.553 602.63 142.834 602.888 143.622C603.139 144.417 603.615 144.954 604.32 145.234C605.019 145.519 606.166 145.703 607.766 145.793V147.203C605.243 147.068 601.713 147.001 597.181 147.001C592.168 147.001 588.475 147.068 586.103 147.203V145.793C587.636 145.703 588.766 145.519 589.482 145.234C590.21 144.954 590.702 144.417 590.959 143.622C591.228 142.834 591.362 141.553 591.362 139.774V104.978C591.362 103.205 591.228 101.923 590.959 101.129C590.702 100.34 590.21 99.8033 589.482 99.518C588.766 99.2383 587.636 99.0481 586.103 98.9586V97.5488C588.475 97.6999 592.022 97.7726 596.756 97.7726L604.544 97.6831C605.467 97.6383 606.541 97.616 607.766 97.616C614.212 97.616 619.057 98.6677 622.313 100.771C625.564 102.874 627.192 105.895 627.192 109.834C627.192 113.145 625.972 116.071 623.544 118.605C621.11 121.128 617.088 122.711 611.482 123.349C615.689 123.741 618.822 124.658 620.881 126.101C622.94 127.55 624.272 129.721 624.887 132.613L626.498 139.841C626.868 141.709 627.304 143.018 627.796 143.779C628.289 144.529 628.971 144.898 629.855 144.898C630.42 144.842 630.896 144.696 631.288 144.473C631.69 144.238 632.149 143.835 632.675 143.264L633.637 144.115ZM606.849 98.9586C605.596 98.9586 604.667 99.1264 604.074 99.4508C603.492 99.7809 603.078 100.368 602.843 101.219C602.619 102.058 602.507 103.311 602.507 104.978V122.23H605.528C609.361 122.23 611.985 121.218 613.406 119.187C614.838 117.162 615.555 114.298 615.555 110.594C615.555 106.762 614.872 103.87 613.518 101.912C612.158 99.9431 609.937 98.9586 606.849 98.9586Z" fill="white"/>
<path d="M670.174 97.6877C672.334 97.6877 674.118 97.6206 675.523 97.4863V98.8961C673.374 99.7799 671.125 102.488 668.787 107.019L660.506 123.443V139.778C660.506 141.557 660.629 142.838 660.886 143.627C661.138 144.421 661.614 144.958 662.319 145.238C663.018 145.523 664.165 145.708 665.765 145.798V147.207C663.242 147.073 659.639 147.006 654.956 147.006C649.954 147.006 646.34 147.073 644.102 147.207V145.798C645.635 145.708 646.765 145.523 647.481 145.238C648.208 144.958 648.701 144.421 648.958 143.627C649.227 142.838 649.361 141.557 649.361 139.778V127.919L635.821 102.879C634.372 100.272 633.012 98.9632 631.748 98.9632V97.4863C633.807 97.7269 636.565 97.8444 640.029 97.8444C644.37 97.8444 648.762 97.7269 653.21 97.4863V98.9632C651.565 98.9632 650.267 99.1198 649.316 99.4331C648.359 99.7352 647.884 100.278 647.884 101.067C647.884 101.486 648.046 102.001 648.376 102.611L659.029 123.152L664.512 112.21C666.33 108.529 667.242 105.631 667.242 103.528C667.242 101.934 666.733 100.787 665.72 100.082C664.719 99.3828 663.287 98.9856 661.424 98.8961V97.4863C664.601 97.6206 667.516 97.6877 670.174 97.6877Z" fill="white"/>
<path d="M720.115 96.5645C722.918 96.5645 725.296 96.9672 727.254 97.7728C729.223 98.5672 731.148 99.686 733.028 101.129C733.531 101.549 733.973 101.756 734.348 101.756C735.288 101.756 735.898 100.357 736.183 97.549H737.795C737.599 100.727 737.504 106.388 737.504 114.533H735.892C735.473 111.076 734.913 108.435 734.214 106.612C733.509 104.777 732.317 103.182 730.633 101.823C729.469 100.704 728.11 99.8538 726.56 99.272C725.021 98.6902 723.41 98.3993 721.726 98.3993C717.01 98.3993 713.501 100.704 711.208 105.314C708.925 109.912 707.783 115.646 707.783 122.521C707.783 129.341 708.97 135.047 711.342 139.64C713.725 144.221 717.284 146.509 722.017 146.509C723.595 146.509 725.173 146.218 726.739 145.637C728.306 145.044 729.626 144.182 730.7 143.063C732.429 141.754 733.632 140.121 734.303 138.163C734.986 136.194 735.518 133.318 735.892 129.525H737.504C737.504 137.984 737.599 143.88 737.795 147.203H736.183C736.032 145.715 735.831 144.652 735.579 144.025C735.322 143.388 734.964 143.063 734.505 143.063C734.13 143.063 733.638 143.253 733.028 143.623C730.924 145.116 728.91 146.252 726.985 147.024C725.072 147.796 722.761 148.187 720.048 148.187C715.09 148.187 710.76 147.181 707.045 145.167C703.33 143.153 700.443 140.244 698.384 136.44C696.325 132.636 695.296 128.088 695.296 122.79C695.296 117.66 696.347 113.112 698.451 109.14C700.555 105.157 703.487 102.069 707.246 99.8762C711.006 97.6721 715.292 96.5645 720.115 96.5645Z" fill="white"/>
<path d="M769.559 96.5645C774.51 96.5645 778.846 97.5714 782.561 99.5853C786.287 101.599 789.186 104.519 791.245 108.335C793.304 112.139 794.333 116.681 794.333 121.962C794.333 127.097 793.27 131.651 791.155 135.634C789.051 139.606 786.12 142.694 782.36 144.898C778.6 147.091 774.309 148.187 769.491 148.187C764.534 148.187 760.204 147.181 756.489 145.167C752.774 143.153 749.887 140.244 747.828 136.44C745.769 132.636 744.739 128.088 744.739 122.79C744.739 117.66 745.791 113.112 747.895 109.14C749.999 105.157 752.93 102.069 756.69 99.8762C760.45 97.6721 764.736 96.5645 769.559 96.5645ZM769.29 97.8399C766.705 97.8399 764.434 98.886 762.464 100.973C760.506 103.048 759.001 105.957 757.944 109.7C756.897 113.431 756.377 117.705 756.377 122.521C756.377 127.388 756.97 131.668 758.167 135.366C759.359 139.052 760.97 141.9 763.001 143.914C765.027 145.916 767.287 146.912 769.782 146.912C772.345 146.912 774.605 145.877 776.563 143.802C778.533 141.732 780.038 138.823 781.084 135.075C782.142 131.332 782.673 127.053 782.673 122.231C782.673 117.369 782.075 113.095 780.883 109.409C779.685 105.711 778.074 102.863 776.049 100.861C774.018 98.8469 771.763 97.8399 769.29 97.8399Z" fill="white"/>
<path d="M860.042 98.9586C858.442 99.0481 857.295 99.2383 856.595 99.518C855.891 99.8033 855.415 100.34 855.163 101.129C854.906 101.923 854.783 103.205 854.783 104.978V139.774C854.783 141.553 854.906 142.834 855.163 143.622C855.415 144.417 855.902 144.954 856.618 145.234C857.345 145.519 858.487 145.703 860.042 145.793V147.203C857.457 147.068 853.787 147.001 849.031 147.001C844.018 147.001 840.325 147.068 837.953 147.203V145.793C839.62 145.703 840.846 145.519 841.623 145.234C842.396 144.954 842.921 144.417 843.19 143.622C843.47 142.834 843.615 141.553 843.615 139.774V103.098L826.718 147.27H825.599L806.666 102.114V135.701C806.666 138.465 806.8 140.484 807.069 141.765C807.349 143.052 807.964 143.992 808.904 144.585C809.844 145.166 811.366 145.569 813.47 145.793V147.203C811.646 147.068 809.117 147.001 805.883 147.001C803.315 147.001 801.284 147.068 799.796 147.203V145.793C801.329 145.569 802.459 145.178 803.175 144.607C803.902 144.042 804.395 143.153 804.652 141.944C804.921 140.725 805.055 138.923 805.055 136.551V104.978C805.055 103.205 804.921 101.923 804.652 101.129C804.395 100.34 803.902 99.8033 803.175 99.518C802.459 99.2383 801.329 99.0481 799.796 98.9586V97.5488C801.284 97.6999 803.315 97.7726 805.883 97.7726C810.191 97.7726 813.895 97.6999 816.983 97.5488L831.15 131.696L844.04 97.7726H849.031C853.787 97.7726 857.457 97.6999 860.042 97.5488V98.9586Z" fill="white"/>
<path d="M881.146 127.153V139.348C881.146 141.217 881.337 142.582 881.728 143.443C882.131 144.31 882.83 144.887 883.832 145.166C884.845 145.452 886.45 145.614 888.644 145.659V147.203C882.898 147.068 878.623 147.001 875.82 147.001C873.476 147.001 870.527 147.046 866.98 147.136L864.742 147.203V145.793C866.275 145.703 867.405 145.519 868.121 145.234C868.849 144.954 869.341 144.417 869.598 143.622C869.867 142.834 870.001 141.553 870.001 139.774V104.978C870.001 103.205 869.867 101.923 869.598 101.129C869.341 100.34 868.849 99.8033 868.121 99.518C867.405 99.2383 866.275 99.0481 864.742 98.9586V97.5488C867.114 97.6999 870.661 97.7726 875.395 97.7726L883.183 97.6831C884.106 97.6383 885.18 97.616 886.406 97.616C892.717 97.616 897.528 98.8691 900.841 101.375C904.164 103.881 905.831 107.238 905.831 111.445C905.831 114.012 905.171 116.479 903.862 118.851C902.564 121.212 900.354 123.187 897.237 124.781C894.132 126.364 890.009 127.153 884.861 127.153H881.146ZM885.488 98.9586C884.235 98.9586 883.306 99.1264 882.713 99.4508C882.131 99.7809 881.717 100.368 881.482 101.219C881.258 102.058 881.146 103.311 881.146 104.978V125.743H884.168C887.955 125.743 890.574 124.53 892.023 122.096C893.466 119.668 894.194 116.368 894.194 112.206C894.194 107.674 893.522 104.329 892.18 102.181C890.848 100.033 888.621 98.9586 885.488 98.9586Z" fill="white"/>
<path d="M950.16 141.319C950.77 142.857 951.469 143.976 952.264 144.676C953.053 145.38 953.819 145.75 954.569 145.794V147.204C951.76 147.07 948.213 147.003 943.916 147.003C939.138 147.003 935.591 147.07 933.263 147.204V145.794C935.037 145.705 936.296 145.492 937.046 145.145C937.79 144.787 938.165 144.161 938.165 143.266C938.165 142.432 937.879 141.313 937.314 139.909L933.107 128.408H917.821L916.009 133.241C914.694 136.614 914.039 139.21 914.039 141.028C914.039 142.762 914.56 143.971 915.606 144.653C916.663 145.324 918.224 145.705 920.283 145.794V147.204C917.105 147.07 914.201 147.003 911.577 147.003C909.429 147.003 907.65 147.07 906.251 147.204V145.794C908.545 145.38 910.559 142.925 912.294 138.432L928.273 97.416C928.793 97.4608 929.616 97.4831 930.735 97.4831C931.854 97.4831 932.642 97.4608 933.107 97.416L950.16 141.319ZM932.614 126.998L925.677 108.067L918.381 126.998H932.614Z" fill="white"/>
<path d="M1002.69 98.9586C1001.14 99.1823 999.994 99.5795 999.266 100.145C998.55 100.715 998.064 101.61 997.812 102.83C997.554 104.038 997.431 105.828 997.431 108.2V147.337L995.753 147.27L993.851 147.337L963.414 108.782V135.701C963.414 138.465 963.548 140.484 963.817 141.765C964.097 143.052 964.712 143.992 965.652 144.585C966.592 145.166 968.114 145.569 970.218 145.793V147.203C968.394 147.068 965.865 147.001 962.631 147.001C960.063 147.001 958.032 147.068 956.543 147.203V145.793C958.076 145.569 959.207 145.178 959.923 144.607C960.65 144.042 961.143 143.153 961.4 141.944C961.668 140.725 961.803 138.923 961.803 136.551V104.978C961.803 103.205 961.668 101.923 961.4 101.129C961.143 100.34 960.65 99.8033 959.923 99.518C959.207 99.2383 958.076 99.0481 956.543 98.9586V97.5488C958.032 97.6999 960.063 97.7726 962.631 97.7726C964.969 97.7726 966.984 97.6999 968.673 97.5488L995.82 131.002V109.05C995.82 106.293 995.674 104.273 995.395 102.986C995.109 101.705 994.5 100.771 993.56 100.189C992.631 99.5963 991.12 99.1823 989.017 98.9586V97.5488C990.835 97.6999 993.358 97.7726 996.581 97.7726C999.205 97.7726 1001.24 97.6999 1002.69 97.5488V98.9586Z" fill="white"/>
<path d="M1042.65 97.6877C1044.81 97.6877 1046.6 97.6206 1048 97.4863V98.8961C1045.85 99.7799 1043.6 102.488 1041.26 107.019L1032.98 123.443V139.778C1032.98 141.557 1033.11 142.838 1033.36 143.627C1033.62 144.421 1034.09 144.958 1034.8 145.238C1035.5 145.523 1036.64 145.708 1038.24 145.798V147.207C1035.72 147.073 1032.12 147.006 1027.43 147.006C1022.43 147.006 1018.82 147.073 1016.58 147.207V145.798C1018.11 145.708 1019.24 145.523 1019.96 145.238C1020.69 144.958 1021.18 144.421 1021.44 143.627C1021.7 142.838 1021.84 141.557 1021.84 139.778V127.919L1008.3 102.879C1006.85 100.272 1005.49 98.9632 1004.23 98.9632V97.4863C1006.28 97.7269 1009.04 97.8444 1012.51 97.8444C1016.85 97.8444 1021.24 97.7269 1025.69 97.4863V98.9632C1024.04 98.9632 1022.74 99.1198 1021.79 99.4331C1020.84 99.7352 1020.36 100.278 1020.36 101.067C1020.36 101.486 1020.52 102.001 1020.85 102.611L1031.51 123.152L1036.99 112.21C1038.81 108.529 1039.72 105.631 1039.72 103.528C1039.72 101.934 1039.21 100.787 1038.2 100.082C1037.2 99.3828 1035.76 98.9856 1033.9 98.8961V97.4863C1037.08 97.6206 1039.99 97.6877 1042.65 97.6877Z" fill="white"/>
</svg>
